<svg width="94" height="31" viewBox="0 0 94 31" fill="none" xmlns="http://www.w3.org/2000/svg">
<path d="M11.4191 18.4011V22.5772C10.4925 22.5772 9.78781 22.3684 9.25275 21.9769C9.03089 27.4581 6.04235 30.0812 2.80584 30.0812C1.7096 30.0812 0.665571 29.7288 0 29.3895C0.117454 28.7892 0.561171 26.6359 0.652521 26.153C1.05708 26.2183 1.72266 26.2835 2.44043 26.2835C4.80256 26.2835 6.25115 24.1955 6.25115 21.6767C5.92489 20.0193 4.7634 14.0944 4.6851 13.6638C5.02441 13.5202 6.53826 12.9721 6.74707 12.8807C7.37349 12.6458 7.94771 12.437 8.27397 12.3065L8.86124 16.4827C9.05699 17.866 9.82701 18.4011 11.4191 18.4011ZM27.6669 18.4011H28.1759V22.5772H26.1269C25.8137 23.1775 24.2607 26.1661 23.3472 27.9018C22.4598 29.5983 21.2852 29.8463 19.3146 29.259C15.9476 28.228 13.8987 25.9051 13.2462 22.5772H11.4191C11.0145 22.5772 10.884 22.3031 10.884 20.4891C10.884 18.6621 11.0145 18.4011 11.4191 18.4011H13.0896C13.4941 13.1809 15.778 10.4534 19.0536 10.4534C21.8595 10.4534 23.9606 12.5153 23.9606 15.9737C23.9606 19.3668 22.1205 21.7159 16.5871 22.3945C17.2005 24.0388 18.5055 25.109 20.6327 25.6832C24.2607 19.1188 25.096 18.4011 27.6669 18.4011ZM18.636 14.1075C18.0357 14.1075 17.3571 14.2249 16.9133 14.4337C16.574 15.3212 16.2869 16.7698 16.1825 18.388C18.388 18.3489 19.7453 18.1792 20.5283 17.879C20.698 17.4745 20.8154 16.835 20.8154 16.313C20.8154 14.8122 19.9671 14.1075 18.636 14.1075ZM32.4564 18.4011V22.5772H28.1759C27.7713 22.5772 27.6408 22.3031 27.6408 20.4891C27.6408 18.6621 27.7713 18.4011 28.1759 18.4011H32.4564ZM36.7369 18.4011V22.5772H32.4564C32.0518 22.5772 31.9213 22.3031 31.9213 20.4891C31.9213 18.6621 32.0518 18.4011 32.4564 18.4011H36.7369ZM41.0175 18.4011V22.5772H36.7369C36.3324 22.5772 36.2019 22.3031 36.2019 20.4891C36.2019 18.6621 36.3324 18.4011 36.7369 18.4011H41.0175ZM49.5264 1.07014L49.6047 1.93147C46.5378 3.21041 44.6063 4.20224 42.7532 5.29848C42.7532 5.15492 42.7793 4.54155 42.7793 4.30664C42.7923 4.12394 42.8184 3.48447 42.8184 3.31481C44.6585 2.16637 46.6814 1.20064 49.435 0L49.5264 1.07014ZM45.7156 9.44851C50.975 12.0977 52.0581 14.2771 52.0581 17.6702C52.0581 19.6539 51.6666 20.4369 50.9097 21.0242C49.7352 21.9508 46.7075 22.5772 42.6357 22.5772H41.0175C40.6129 22.5772 40.4824 22.264 40.4824 20.5022C40.4824 18.6751 40.6129 18.4011 41.0175 18.4011H42.9098C45.4677 18.4011 47.5166 18.2184 48.652 17.8138V17.2918C48.652 15.4256 47.0598 13.8595 42.0093 11.4321C42.0354 11.1711 42.1529 10.2315 42.192 9.90524C42.2573 9.39631 42.4008 8.07822 42.4269 7.80416C44.2148 6.36861 45.3502 5.63779 52.2017 2.62314C52.2278 2.93635 52.3583 4.21529 52.4105 4.73731C52.4366 5.06357 52.528 6.09455 52.5671 6.43386C51.3534 6.95588 47.0598 8.84819 45.7156 9.44851ZM59.3925 22.277C59.0662 22.3292 58.0352 22.538 57.7481 22.5903C57.5393 22.6425 56.7824 22.786 56.5083 22.8382C56.3256 18.4141 55.6862 3.91513 55.6731 3.52362L57.9439 3.04075C58.244 2.9755 59.1315 2.79279 59.3925 2.74059V22.277ZM70.3548 18.4011V22.5772C69.4283 22.5772 68.6713 22.3423 68.1232 21.9899C67.9014 27.4581 64.9128 30.0812 61.6763 30.0812C60.4365 30.0812 59.014 29.768 57.7742 29.3895C57.8917 28.8153 58.3093 26.675 58.4137 26.153C59.3794 26.2313 60.2277 26.2835 61.3109 26.2835C63.673 26.2835 65.1216 24.1955 65.1216 21.6767C64.7954 20.0193 63.6339 14.0944 63.5556 13.6638C63.8949 13.5202 65.3957 12.9721 65.6175 12.8938C66.244 12.6589 66.8182 12.437 67.1444 12.3065L67.6534 16.4174C67.8231 17.7877 68.5539 18.4011 70.3548 18.4011ZM70.3548 22.5772C69.9503 22.5772 69.8198 22.3031 69.8198 20.4891C69.8198 18.6621 69.9503 18.4011 70.3548 18.4011C72.8866 18.4011 74.4396 18.3097 75.4576 17.9573C75.1313 16.0781 74.4527 12.0586 74.3874 11.667C74.7006 11.5757 76.0448 11.1581 76.3189 11.0798L77.8719 10.61C78.0546 12.1499 78.4852 16.0781 78.4852 17.2396C78.4852 19.2493 77.9763 20.5805 76.6582 21.494C75.5228 22.264 73.4086 22.5772 70.3548 22.5772ZM73.5652 27.9801L74.9747 25.5135C75.7969 25.7746 77.5065 26.5576 78.3025 27.0926C78.0807 27.5233 77.128 29.4026 76.9583 29.7158C76.1623 29.4026 74.1003 28.3455 73.5652 27.9801ZM70.4462 25.5266C71.3336 25.8659 73.1215 26.7142 73.8262 27.2493C73.3434 28.0845 72.5604 29.4548 72.4038 29.7158C71.5294 29.4026 69.7676 28.5543 69.102 28.1367C69.3108 27.706 70.2765 25.8529 70.4462 25.5266ZM87.5031 10.7274C90.9745 10.7274 93.2322 13.8073 93.2322 19.928C93.2322 26.6228 90.1915 30.0812 85.8326 30.0812C84.5276 30.0812 82.831 29.6636 81.513 29.1677C81.6174 28.6326 82.0611 26.5576 82.1524 26.0747C83.1312 26.1791 84.3579 26.2835 85.6108 26.2835C88.1295 26.2835 89.7217 24.7827 90.0088 22.2248C89.2127 22.4597 88.1034 22.5772 86.8375 22.5772C83.7576 22.5772 81.9045 21.5462 81.9045 18.4141C81.9045 13.5333 84.3318 10.7274 87.5031 10.7274ZM84.9191 18.0879C85.3367 18.3097 86.185 18.4663 87.3465 18.4663C88.2992 18.4663 89.278 18.388 89.9827 18.2836C89.7347 15.4386 88.782 14.2902 87.2943 14.2902C85.6238 14.2902 84.88 15.8432 84.9191 18.0879Z" fill="#3857C3"/>
</svg>
