<?xml version="1.0" encoding="UTF-8"?>
<!DOCTYPE svg PUBLIC "-//W3C//DTD SVG 1.1//EN" "http://www.w3.org/Graphics/SVG/1.1/DTD/svg11.dtd">
<svg xmlns="http://www.w3.org/2000/svg" version="1.1" width="533px" height="533px" style="shape-rendering:geometricPrecision; text-rendering:geometricPrecision; image-rendering:optimizeQuality; fill-rule:evenodd; clip-rule:evenodd" xmlns:xlink="http://www.w3.org/1999/xlink">
<g><path style="opacity:0.995" fill="#aafe84" d="M 78.5,171.5 C 78.62,172.586 79.2867,173.253 80.5,173.5C 81.7133,173.253 82.38,172.586 82.5,171.5C 89.5,171.5 96.5,171.5 103.5,171.5C 104.538,173.519 105.872,173.853 107.5,172.5C 108.652,171.375 109.652,171.375 110.5,172.5C 110.711,174.424 111.377,174.757 112.5,173.5C 112.833,173.5 113.167,173.5 113.5,173.5C 114.184,175.185 115.517,176.185 117.5,176.5C 118.107,176.376 118.44,176.043 118.5,175.5C 118.833,175.5 119.167,175.5 119.5,175.5C 119.693,178.57 121.027,179.57 123.5,178.5C 124.167,178.833 124.833,179.167 125.5,179.5C 127.5,183.5 130.5,186.5 134.5,188.5C 134.5,188.833 134.5,189.167 134.5,189.5C 137.36,196.553 140.693,203.219 144.5,209.5C 144.5,209.833 144.5,210.167 144.5,210.5C 143.549,211.919 143.216,213.585 143.5,215.5C 144.5,215.5 145.5,215.5 146.5,215.5C 146.167,216.167 145.833,216.833 145.5,217.5C 144.532,219.607 144.198,221.941 144.5,224.5C 145.5,224.5 146.5,224.5 147.5,224.5C 147.665,228.182 147.499,231.848 147,235.5C 146.184,236.823 145.017,237.489 143.5,237.5C 129.673,236.669 115.673,236.169 101.5,236C 101.08,229.88 99.5805,224.046 97,218.5C 96.3292,217.748 95.4959,217.414 94.5,217.5C 93.5637,216.026 92.2303,215.026 90.5,214.5C 89.8478,213.275 88.6811,212.608 87,212.5C 85.3189,212.608 84.1522,213.275 83.5,214.5C 81.7162,214.893 80.0495,215.559 78.5,216.5C 78.44,215.957 78.1067,215.624 77.5,215.5C 76.6143,216.325 76.281,217.325 76.5,218.5C 74.5,219.833 72.8333,221.5 71.5,223.5C 70.1779,223.33 69.0113,223.663 68,224.5C 66.6039,227.064 65.4373,229.731 64.5,232.5C 61.3612,236.224 59.3612,240.557 58.5,245.5C 58.5,245.833 58.5,246.167 58.5,246.5C 56.5197,247.848 55.353,249.848 55,252.5C 54.5779,254.355 54.0779,256.189 53.5,258C 53.5699,258.765 53.9033,259.265 54.5,259.5C 54.5,259.833 54.5,260.167 54.5,260.5C 52.9519,260.821 52.2852,261.821 52.5,263.5C 52.5,264.167 52.5,264.833 52.5,265.5C 51.3509,265.791 50.6842,266.624 50.5,268C 50.528,269.07 50.8614,269.903 51.5,270.5C 51.0728,274.824 50.7395,279.158 50.5,283.5C 49.1999,285.223 48.5332,287.39 48.5,290C 48.5332,292.61 49.1999,294.777 50.5,296.5C 50.5,297.833 50.5,299.167 50.5,300.5C 49.8761,300.917 49.5427,301.584 49.5,302.5C 49.7472,303.713 50.4138,304.38 51.5,304.5C 51.5,305.167 51.5,305.833 51.5,306.5C 52.0439,310.746 54.0439,314.246 57.5,317C 58.4368,317.692 59.1034,317.525 59.5,316.5C 60.1667,316.833 60.8333,317.167 61.5,317.5C 62.5145,318.765 64.0145,319.431 66,319.5C 67.9855,319.431 69.4855,318.765 70.5,317.5C 71.1667,317.5 71.8333,317.5 72.5,317.5C 73.6226,318.757 74.2893,318.424 74.5,316.5C 76.5,315.167 78.5,313.833 80.5,312.5C 82.3318,313.718 83.3318,313.051 83.5,310.5C 84.9063,310.027 85.573,309.027 85.5,307.5C 85.8333,306.833 86.1667,306.167 86.5,305.5C 87.3764,305.631 88.0431,305.298 88.5,304.5C 90.6551,300.727 91.9884,297.06 92.5,293.5C 88.1998,291.782 83.5331,290.782 78.5,290.5C 77.8333,290.5 77.1667,290.5 76.5,290.5C 76.5,289.5 76.5,288.5 76.5,287.5C 78.2237,285.588 79.557,283.255 80.5,280.5C 80.7716,278.229 80.7716,275.895 80.5,273.5C 80.5,273.167 80.5,272.833 80.5,272.5C 81.6491,272.209 82.3158,271.376 82.5,270C 83.5034,267.654 83.5034,265.487 82.5,263.5C 82.5,262.833 82.5,262.167 82.5,261.5C 83.9999,259.778 85.6666,258.112 87.5,256.5C 110.169,256.333 132.836,256.5 155.5,257C 156.244,258.039 157.244,258.539 158.5,258.5C 158.5,259.5 158.5,260.5 158.5,261.5C 157.414,261.62 156.747,262.287 156.5,263.5C 156.543,264.416 156.876,265.083 157.5,265.5C 157.5,265.833 157.5,266.167 157.5,266.5C 155.952,266.821 155.285,267.821 155.5,269.5C 155.552,271.903 155.219,274.236 154.5,276.5C 153.351,276.791 152.684,277.624 152.5,279C 151.688,283.561 150.688,288.061 149.5,292.5C 149.158,293.338 148.492,293.672 147.5,293.5C 146.306,292.223 144.64,291.556 142.5,291.5C 140.833,291.833 139.167,292.167 137.5,292.5C 136.167,295.833 134.833,299.167 133.5,302.5C 133.957,303.298 134.624,303.631 135.5,303.5C 135.5,303.833 135.5,304.167 135.5,304.5C 134.5,304.5 133.5,304.5 132.5,304.5C 128.048,318.608 121.048,331.274 111.5,342.5C 111.5,343.167 111.167,343.5 110.5,343.5C 107.833,344.167 106.167,345.833 105.5,348.5C 103.772,350.226 101.772,351.559 99.5,352.5C 99.44,351.957 99.1067,351.624 98.5,351.5C 96.7869,351.879 95.7869,352.879 95.5,354.5C 92.1996,356.642 88.533,357.975 84.5,358.5C 82.8041,356.871 81.8041,357.204 81.5,359.5C 80.391,359.557 79.391,359.89 78.5,360.5C 78.38,359.414 77.7133,358.747 76.5,358.5C 75.2867,358.747 74.62,359.414 74.5,360.5C 66.1667,360.5 57.8333,360.5 49.5,360.5C 47.9982,357.978 46.6649,357.978 45.5,360.5C 44.8333,360.167 44.1667,359.833 43.5,359.5C 42.8333,356.833 42.1667,356.833 41.5,359.5C 40.8333,359.167 40.1667,358.833 39.5,358.5C 38.9344,356.922 37.9344,355.588 36.5,354.5C 35.7025,354.957 35.3691,355.624 35.5,356.5C 32.3197,354.745 29.3197,352.745 26.5,350.5C 24.8333,346.833 22.1667,344.167 18.5,342.5C 17.075,341.078 16.075,339.411 15.5,337.5C 12.5958,332.584 10.5958,327.25 9.5,321.5C 8.61517,319.023 7.28183,317.023 5.5,315.5C 5.5,314.833 5.5,314.167 5.5,313.5C 6.14713,312.726 6.48046,311.726 6.5,310.5C 6.36015,308.97 5.69348,307.97 4.5,307.5C 4.5,297.833 4.5,288.167 4.5,278.5C 5.69348,278.03 6.36015,277.03 6.5,275.5C 6.48046,274.274 6.14713,273.274 5.5,272.5C 5.5,271.833 5.5,271.167 5.5,270.5C 6.69348,270.03 7.36015,269.03 7.5,267.5C 7.48046,266.274 7.14713,265.274 6.5,264.5C 6.5,263.833 6.5,263.167 6.5,262.5C 7.5,262.5 8.5,262.5 9.5,262.5C 12.3869,244.838 18.0536,228.172 26.5,212.5C 26.5,212.167 26.5,211.833 26.5,211.5C 28.9822,210.337 30.3155,208.337 30.5,205.5C 30.5,204.833 30.8333,204.5 31.5,204.5C 32.9063,204.027 33.573,203.027 33.5,201.5C 33.8333,200.833 34.1667,200.167 34.5,199.5C 39.8333,196.167 44.1667,191.833 47.5,186.5C 49.6195,184.6 51.9528,182.934 54.5,181.5C 54.56,182.043 54.8933,182.376 55.5,182.5C 57.2131,182.121 58.2131,181.121 58.5,179.5C 59.6883,178.636 60.8549,177.636 62,176.5C 62.3333,176.833 62.6667,177.167 63,177.5C 64.6356,175.45 66.8023,174.45 69.5,174.5C 70.6226,175.757 71.2893,175.424 71.5,173.5C 72.1667,173.5 72.8333,173.5 73.5,173.5C 74.9473,174.885 75.9473,174.552 76.5,172.5C 76.8417,171.662 77.5084,171.328 78.5,171.5 Z"/></g>
<g><path style="opacity:0.988" fill="#abfe84" d="M 234.5,171.5 C 235.167,174.167 235.833,174.167 236.5,171.5C 238.5,172.167 240.5,172.833 242.5,173.5C 242.369,174.376 242.702,175.043 243.5,175.5C 244.687,176.653 245.687,176.653 246.5,175.5C 246.833,175.5 247.167,175.5 247.5,175.5C 247.351,176.552 247.517,177.552 248,178.5C 248.333,178.167 248.667,177.833 249,177.5C 250.071,180.113 250.905,180.113 251.5,177.5C 252.5,177.833 253.167,178.5 253.5,179.5C 253.942,182.332 255.275,183.332 257.5,182.5C 258.167,182.5 258.5,182.833 258.5,183.5C 258.918,186.439 260.418,188.772 263,190.5C 264.727,195.267 266.894,199.6 269.5,203.5C 269.5,203.833 269.5,204.167 269.5,204.5C 269.285,206.179 269.952,207.179 271.5,207.5C 271.5,208.5 271.5,209.5 271.5,210.5C 270.853,211.274 270.52,212.274 270.5,213.5C 270.64,215.03 271.307,216.03 272.5,216.5C 272.5,219.833 272.5,223.167 272.5,226.5C 271.167,226.5 270.5,227.167 270.5,228.5C 257.208,230.482 243.541,231.149 229.5,230.5C 228.091,225.59 226.924,220.59 226,215.5C 225,214.167 224,212.833 223,211.5C 222.536,212.094 222.369,212.761 222.5,213.5C 221.167,212.833 219.833,212.167 218.5,211.5C 218.209,210.351 217.376,209.684 216,209.5C 214.624,209.684 213.791,210.351 213.5,211.5C 212.833,211.5 212.167,211.5 211.5,211.5C 211.44,210.957 211.107,210.624 210.5,210.5C 208.787,210.879 207.787,211.879 207.5,213.5C 206.25,213.577 205.417,214.244 205,215.5C 204.421,217.649 203.921,219.815 203.5,222C 203.684,223.376 204.351,224.209 205.5,224.5C 205.5,225.5 205.5,226.5 205.5,227.5C 204.957,227.56 204.624,227.893 204.5,228.5C 205.476,231.766 207.143,234.433 209.5,236.5C 210.167,237.167 210.833,237.833 211.5,238.5C 211.622,241.292 212.956,243.292 215.5,244.5C 218.5,247.167 221.5,249.833 224.5,252.5C 225.5,255.5 227.5,257.5 230.5,258.5C 230.833,259.167 231.167,259.833 231.5,260.5C 233.794,264.127 236.46,267.461 239.5,270.5C 240.167,270.5 240.5,270.833 240.5,271.5C 242.473,277.713 245.14,283.379 248.5,288.5C 248.5,288.833 248.5,289.167 248.5,289.5C 247.024,291.709 247.691,293.042 250.5,293.5C 250.5,294.5 250.5,295.5 250.5,296.5C 249.191,298.571 248.525,301.071 248.5,304C 248.503,306.69 248.836,309.19 249.5,311.5C 249.5,312.167 249.833,312.5 250.5,312.5C 250.5,313.5 250.5,314.5 250.5,315.5C 249.5,315.5 248.5,315.5 247.5,315.5C 247.464,319.979 246.631,324.312 245,328.5C 242.682,331.973 240.849,335.639 239.5,339.5C 235.057,342.936 231.391,346.936 228.5,351.5C 227.833,351.5 227.5,351.833 227.5,352.5C 227.167,352.5 226.833,352.5 226.5,352.5C 226.44,351.957 226.107,351.624 225.5,351.5C 221.855,352.368 219.189,354.368 217.5,357.5C 217.167,357.5 216.833,357.5 216.5,357.5C 215.377,356.243 214.711,356.576 214.5,358.5C 213.833,358.5 213.167,358.5 212.5,358.5C 211.377,357.243 210.711,357.576 210.5,359.5C 210.158,360.338 209.492,360.672 208.5,360.5C 207.5,357.833 206.5,357.833 205.5,360.5C 195.5,360.5 185.5,360.5 175.5,360.5C 174.5,357.833 173.5,357.833 172.5,360.5C 171.833,360.167 171.167,359.833 170.5,359.5C 169.833,356.833 169.167,356.833 168.5,359.5C 167.833,359.167 167.167,358.833 166.5,358.5C 166.631,357.624 166.298,356.957 165.5,356.5C 163.941,355.926 162.441,355.26 161,354.5C 160.536,355.094 160.369,355.761 160.5,356.5C 158.611,355.396 156.945,354.063 155.5,352.5C 149.659,346.345 144.659,339.678 140.5,332.5C 140.5,331.833 140.5,331.167 140.5,330.5C 140.357,327.615 139.357,325.282 137.5,323.5C 137.5,322.5 137.5,321.5 137.5,320.5C 138.288,314.315 138.955,307.982 139.5,301.5C 153.167,301.5 166.833,301.5 180.5,301.5C 180.877,303.258 181.544,304.925 182.5,306.5C 181.572,308.773 181.572,311.106 182.5,313.5C 182.64,315.03 183.307,316.03 184.5,316.5C 184.5,316.833 184.5,317.167 184.5,317.5C 184.685,319.196 185.519,320.529 187,321.5C 187.399,321.272 187.565,320.938 187.5,320.5C 188.167,320.5 188.833,320.5 189.5,320.5C 189.97,321.693 190.97,322.36 192.5,322.5C 194.03,322.36 195.03,321.693 195.5,320.5C 196.167,320.5 196.833,320.5 197.5,320.5C 197.435,320.938 197.601,321.272 198,321.5C 202.592,318.861 204.092,315.195 202.5,310.5C 202.5,309.5 202.5,308.5 202.5,307.5C 203.957,303.53 202.957,300.197 199.5,297.5C 199.5,296.167 198.833,295.5 197.5,295.5C 197.5,295.167 197.5,294.833 197.5,294.5C 197.631,291.633 196.297,289.967 193.5,289.5C 192.5,289.167 191.833,288.5 191.5,287.5C 191.291,286.078 190.791,284.745 190,283.5C 185.201,278.224 180.034,273.557 174.5,269.5C 173.5,269.167 172.833,268.5 172.5,267.5C 172.912,265.027 171.912,263.694 169.5,263.5C 166.397,256.561 163.064,249.728 159.5,243C 160.337,241.989 160.67,240.822 160.5,239.5C 159.5,239.5 158.5,239.5 157.5,239.5C 157.5,238.833 157.5,238.167 157.5,237.5C 158.147,236.726 158.48,235.726 158.5,234.5C 158.36,232.97 157.693,231.97 156.5,231.5C 156.5,228.167 156.5,224.833 156.5,221.5C 157.693,221.03 158.36,220.03 158.5,218.5C 158.48,217.274 158.147,216.274 157.5,215.5C 157.5,214.833 157.5,214.167 157.5,213.5C 158.496,213.586 159.329,213.252 160,212.5C 161.533,204.878 164.866,198.211 170,192.5C 170.483,191.552 170.649,190.552 170.5,189.5C 171.76,187.633 173.427,186.3 175.5,185.5C 175.435,185.938 175.601,186.272 176,186.5C 177.802,185.211 178.969,183.544 179.5,181.5C 180.167,181.167 180.833,180.833 181.5,180.5C 181.56,181.043 181.893,181.376 182.5,181.5C 184.662,179.98 186.995,178.98 189.5,178.5C 189.5,177.5 189.5,176.5 189.5,175.5C 190.708,174.766 192.041,174.433 193.5,174.5C 194.623,175.757 195.289,175.424 195.5,173.5C 196.167,173.167 196.833,172.833 197.5,172.5C 198.167,175.167 198.833,175.167 199.5,172.5C 210.713,171.555 222.379,171.221 234.5,171.5 Z"/></g>
<g><path style="opacity:0.867" fill="#a1e97e" d="M 78.5,171.5 C 79.8333,171.5 81.1667,171.5 82.5,171.5C 82.38,172.586 81.7133,173.253 80.5,173.5C 79.2867,173.253 78.62,172.586 78.5,171.5 Z"/></g>
<g><path style="opacity:0.714" fill="#a2ea7f" d="M 103.5,171.5 C 105.099,171.232 106.432,171.566 107.5,172.5C 105.872,173.853 104.538,173.519 103.5,171.5 Z"/></g>
<g><path style="opacity:0.09" fill="#9ee57c" d="M 110.5,172.5 C 111.492,172.328 112.158,172.662 112.5,173.5C 111.377,174.757 110.711,174.424 110.5,172.5 Z"/></g>
<g><path style="opacity:0.745" fill="#9ee67c" d="M 234.5,171.5 C 235.167,171.5 235.833,171.5 236.5,171.5C 235.833,174.167 235.167,174.167 234.5,171.5 Z"/></g>
<g><path style="opacity:0.678" fill="#a1e97f" d="M 76.5,172.5 C 75.9473,174.552 74.9473,174.885 73.5,173.5C 74.209,172.596 75.209,172.263 76.5,172.5 Z"/></g>
<g><path style="opacity:0.796" fill="#a2e880" d="M 197.5,172.5 C 198.167,172.5 198.833,172.5 199.5,172.5C 198.833,175.167 198.167,175.167 197.5,172.5 Z"/></g>
<g><path style="opacity:0.994" fill="#abfe84" d="M 323.5,173.5 C 342.833,173.5 362.167,173.5 381.5,173.5C 382.83,234.863 382.83,296.196 381.5,357.5C 366.755,357.816 352.088,357.483 337.5,356.5C 337.818,351.968 337.485,347.634 336.5,343.5C 336.5,341.5 336.5,339.5 336.5,337.5C 337.043,337.44 337.376,337.107 337.5,336.5C 323.182,335.501 308.849,335.167 294.5,335.5C 294.371,337.216 294.038,338.883 293.5,340.5C 293.5,340.833 293.5,341.167 293.5,341.5C 292.503,341.47 291.836,341.97 291.5,343C 289.977,347.743 287.977,352.243 285.5,356.5C 270.672,357.167 256.006,357.833 241.5,358.5C 241.167,358.5 240.833,358.5 240.5,358.5C 239.744,355.169 240.244,351.835 242,348.5C 248.843,335.137 255.01,321.47 260.5,307.5C 261.404,306.791 261.737,305.791 261.5,304.5C 264.201,301.765 265.868,298.431 266.5,294.5C 266.5,294.167 266.5,293.833 266.5,293.5C 267.404,292.791 267.737,291.791 267.5,290.5C 268.376,290.631 269.043,290.298 269.5,289.5C 273.415,282.343 276.748,275.01 279.5,267.5C 281.138,266.295 281.471,264.962 280.5,263.5C 280.5,262.833 280.5,262.167 280.5,261.5C 281.376,261.631 282.043,261.298 282.5,260.5C 290.314,245.205 297.314,229.539 303.5,213.5C 310.141,200.219 316.807,186.885 323.5,173.5 Z M 341.5,227.5 C 341.5,228.5 341.5,229.5 341.5,230.5C 340.1,235.362 339.434,240.362 339.5,245.5C 339.5,248.833 339.5,252.167 339.5,255.5C 338.671,260.453 338.337,265.453 338.5,270.5C 338.5,274.167 338.5,277.833 338.5,281.5C 338.5,281.833 338.5,282.167 338.5,282.5C 337.577,286.064 337.244,289.731 337.5,293.5C 337.5,293.833 337.5,294.167 337.5,294.5C 329.833,294.5 322.167,294.5 314.5,294.5C 317.102,287.031 320.102,279.698 323.5,272.5C 323.5,272.167 323.5,271.833 323.5,271.5C 324.301,269.958 324.634,268.292 324.5,266.5C 324.5,266.167 324.5,265.833 324.5,265.5C 327.093,262.446 328.759,258.78 329.5,254.5C 330.234,253.292 330.567,251.959 330.5,250.5C 331.497,250.53 332.164,250.03 332.5,249C 333.662,245.853 334.662,242.686 335.5,239.5C 335.918,238.778 336.584,238.278 337.5,238C 336.944,237.617 336.611,237.117 336.5,236.5C 338.351,233.628 340.017,230.628 341.5,227.5 Z"/></g>
<g><path style="opacity:0.99" fill="#abfe84" d="M 431.5,173.5 C 444.833,173.5 458.167,173.5 471.5,173.5C 472.152,174.725 473.319,175.392 475,175.5C 476.681,175.392 477.848,174.725 478.5,173.5C 479.708,174.234 481.041,174.567 482.5,174.5C 483.167,177.167 483.833,177.167 484.5,174.5C 485.708,175.234 487.041,175.567 488.5,175.5C 488.711,177.424 489.377,177.757 490.5,176.5C 493.327,177.108 495.993,178.108 498.5,179.5C 498.711,181.424 499.377,181.757 500.5,180.5C 500.833,180.5 501.167,180.5 501.5,180.5C 502.066,182.078 503.066,183.412 504.5,184.5C 505.429,185.55 506.095,185.55 506.5,184.5C 507.492,184.328 508.158,184.662 508.5,185.5C 508.668,188.051 509.668,188.718 511.5,187.5C 513.167,188.5 514.5,189.833 515.5,191.5C 516.136,193.795 517.469,195.461 519.5,196.5C 519.461,199.089 520.461,201.089 522.5,202.5C 523.586,207.595 525.253,212.262 527.5,216.5C 527.5,217.167 527.5,217.833 527.5,218.5C 526.848,219.449 526.514,220.615 526.5,222C 526.307,224.008 526.974,225.508 528.5,226.5C 528.5,229.833 528.5,233.167 528.5,236.5C 527.235,237.514 526.569,239.014 526.5,241C 526.508,242.707 526.842,244.207 527.5,245.5C 527.5,246.5 527.5,247.5 527.5,248.5C 525.618,249.221 525.285,250.221 526.5,251.5C 526.5,252.167 526.5,252.833 526.5,253.5C 524.826,256.639 523.16,259.973 521.5,263.5C 521.624,264.107 521.957,264.44 522.5,264.5C 522.5,265.167 522.5,265.833 522.5,266.5C 521.624,266.369 520.957,266.702 520.5,267.5C 519.199,270.427 518.199,273.427 517.5,276.5C 517.167,277.167 516.833,277.833 516.5,278.5C 514.592,279.486 513.592,281.152 513.5,283.5C 513.5,283.833 513.5,284.167 513.5,284.5C 511.5,284.5 510.5,285.5 510.5,287.5C 508.086,288.911 506.419,290.911 505.5,293.5C 504.478,296.522 502.478,298.522 499.5,299.5C 499.565,299.062 499.399,298.728 499,298.5C 496.873,300.114 495.373,302.114 494.5,304.5C 494.5,305.167 494.167,305.5 493.5,305.5C 493.631,304.761 493.464,304.094 493,303.5C 491.294,304.308 490.461,305.641 490.5,307.5C 490.158,308.338 489.492,308.672 488.5,308.5C 486.027,307.43 484.693,308.43 484.5,311.5C 482.351,312.736 480.018,313.736 477.5,314.5C 476.85,314.196 476.183,313.863 475.5,313.5C 473.271,314.577 470.937,315.244 468.5,315.5C 468.5,316.5 468.5,317.5 468.5,318.5C 467.833,318.5 467.167,318.5 466.5,318.5C 465.377,317.243 464.711,317.576 464.5,319.5C 463.833,319.5 463.167,319.5 462.5,319.5C 462.179,317.952 461.179,317.285 459.5,317.5C 459.5,318.5 459.5,319.5 459.5,320.5C 458.5,320.5 457.5,320.5 456.5,320.5C 456.083,319.876 455.416,319.543 454.5,319.5C 453.287,319.747 452.62,320.414 452.5,321.5C 450.687,321.983 448.687,321.983 446.5,321.5C 436.595,320.182 427.262,320.182 418.5,321.5C 418.5,321.833 418.5,322.167 418.5,322.5C 418.5,322.833 418.5,323.167 418.5,323.5C 420.975,325.006 423.642,326.339 426.5,327.5C 427.107,327.376 427.44,327.043 427.5,326.5C 427.833,326.5 428.167,326.5 428.5,326.5C 429.066,328.078 430.066,329.412 431.5,330.5C 432.298,330.043 432.631,329.376 432.5,328.5C 433.167,328.833 433.833,329.167 434.5,329.5C 434.167,332.5 435.5,333.833 438.5,333.5C 438.5,334.5 438.5,335.5 438.5,336.5C 437.5,336.5 436.5,336.5 435.5,336.5C 435.557,338.884 435.223,341.218 434.5,343.5C 434.453,345.038 435.12,346.038 436.5,346.5C 436.5,346.833 436.5,347.167 436.5,347.5C 435.5,347.5 434.5,347.5 433.5,347.5C 433.58,350.781 432.913,353.781 431.5,356.5C 417.537,356.812 403.87,357.812 390.5,359.5C 389.833,359.167 389.167,358.833 388.5,358.5C 388.5,357.167 387.833,356.5 386.5,356.5C 386.5,355.167 386.5,353.833 386.5,352.5C 387.5,352.5 388.5,352.5 389.5,352.5C 389.715,350.821 389.048,349.821 387.5,349.5C 387.5,348.833 387.5,348.167 387.5,347.5C 388.5,347.5 389.5,347.5 390.5,347.5C 390.777,343.444 391.444,339.444 392.5,335.5C 392.457,334.584 392.124,333.917 391.5,333.5C 391.5,332.833 391.5,332.167 391.5,331.5C 393.552,330.947 393.885,329.947 392.5,328.5C 392.5,327.833 392.5,327.167 392.5,326.5C 393.586,326.38 394.253,325.713 394.5,324.5C 394.457,323.584 394.124,322.917 393.5,322.5C 393.5,322.167 393.5,321.833 393.5,321.5C 394.5,321.5 395.5,321.5 396.5,321.5C 396.737,320.209 396.404,319.209 395.5,318.5C 395.5,317.833 395.5,317.167 395.5,316.5C 396.586,316.38 397.253,315.713 397.5,314.5C 397.457,313.584 397.124,312.917 396.5,312.5C 396.5,312.167 396.5,311.833 396.5,311.5C 399.196,307.947 400.863,303.78 401.5,299C 401.164,297.97 400.497,297.47 399.5,297.5C 399.5,297.167 399.5,296.833 399.5,296.5C 400.5,296.5 401.5,296.5 402.5,296.5C 403.112,293.304 403.112,290.304 402.5,287.5C 402.5,286.833 402.5,286.167 402.5,285.5C 403.586,285.38 404.253,284.713 404.5,283.5C 404.457,282.584 404.124,281.917 403.5,281.5C 403.5,281.167 403.5,280.833 403.5,280.5C 404.5,280.5 405.5,280.5 406.5,280.5C 406.715,278.821 406.048,277.821 404.5,277.5C 404.5,276.833 404.5,276.167 404.5,275.5C 405.5,275.5 406.5,275.5 407.5,275.5C 408.112,272.304 408.112,269.304 407.5,266.5C 407.5,266.167 407.5,265.833 407.5,265.5C 408.586,265.38 409.253,264.713 409.5,263.5C 409.457,262.584 409.124,261.917 408.5,261.5C 408.5,261.167 408.5,260.833 408.5,260.5C 409.649,260.209 410.316,259.376 410.5,258C 411.566,255.329 411.566,252.829 410.5,250.5C 410.5,250.167 410.5,249.833 410.5,249.5C 412.048,249.179 412.715,248.179 412.5,246.5C 412.5,245.833 412.5,245.167 412.5,244.5C 413.649,244.209 414.316,243.376 414.5,242C 415.08,237.088 416.413,232.422 418.5,228C 418.361,226.699 417.695,225.866 416.5,225.5C 416.5,224.833 416.5,224.167 416.5,223.5C 418.048,223.179 418.715,222.179 418.5,220.5C 418.5,219.833 418.5,219.167 418.5,218.5C 420.294,216.897 421.294,214.73 421.5,212C 421.43,211.235 421.097,210.735 420.5,210.5C 420.5,209.833 420.5,209.167 420.5,208.5C 421.649,208.209 422.316,207.376 422.5,206C 423.503,203.654 423.503,201.487 422.5,199.5C 422.5,199.167 422.5,198.833 422.5,198.5C 424.048,198.179 424.715,197.179 424.5,195.5C 424.5,194.833 424.5,194.167 424.5,193.5C 426.552,192.947 426.885,191.947 425.5,190.5C 425.5,189.833 425.5,189.167 425.5,188.5C 426.649,188.209 427.316,187.376 427.5,186C 428.566,183.329 428.566,180.829 427.5,178.5C 427.5,178.167 427.5,177.833 427.5,177.5C 429.5,176.833 430.833,175.5 431.5,173.5 Z M 444.5,216.5 C 453.986,215.506 463.652,215.173 473.5,215.5C 474.5,216.167 475.5,216.833 476.5,217.5C 479.511,220.537 481.178,224.204 481.5,228.5C 481.5,232.833 481.5,237.167 481.5,241.5C 480.628,248.541 478.628,255.207 475.5,261.5C 475.5,261.833 475.5,262.167 475.5,262.5C 474.091,264.972 472.424,267.305 470.5,269.5C 469.167,270.833 467.833,272.167 466.5,273.5C 466.565,273.062 466.399,272.728 466,272.5C 464.074,274.539 461.907,276.206 459.5,277.5C 459.167,277.5 458.833,277.5 458.5,277.5C 457.833,277.5 457.167,277.5 456.5,277.5C 454.389,278.742 452.389,278.742 450.5,277.5C 451.833,277.5 452.5,276.833 452.5,275.5C 452.5,274.833 452.5,274.167 452.5,273.5C 453.234,272.292 453.567,270.959 453.5,269.5C 453.5,269.167 453.5,268.833 453.5,268.5C 453.833,267.167 454.167,265.833 454.5,264.5C 454.5,263.833 454.5,263.167 454.5,262.5C 455.531,260.039 456.198,257.373 456.5,254.5C 456.5,253.5 456.5,252.5 456.5,251.5C 458.565,247.624 459.898,243.291 460.5,238.5C 460.5,237.833 460.5,237.167 460.5,236.5C 461.341,234.621 461.675,232.621 461.5,230.5C 462.147,229.726 462.48,228.726 462.5,227.5C 462.66,225.645 461.993,224.312 460.5,223.5C 459.391,223.443 458.391,223.11 457.5,222.5C 457.167,222.5 456.833,222.5 456.5,222.5C 455.205,221.512 453.872,220.512 452.5,219.5C 450.046,217.94 447.38,216.94 444.5,216.5 Z"/></g>
<g><path style="opacity:0.741" fill="#a1eb80" d="M 71.5,173.5 C 71.2893,175.424 70.6226,175.757 69.5,174.5C 69.8417,173.662 70.5084,173.328 71.5,173.5 Z"/></g>
<g><path style="opacity:0.429" fill="#a2ec7f" d="M 113.5,173.5 C 115.403,173.796 117.07,174.463 118.5,175.5C 118.44,176.043 118.107,176.376 117.5,176.5C 115.517,176.185 114.184,175.185 113.5,173.5 Z"/></g>
<g><path style="opacity:0.51" fill="#a1e67e" d="M 195.5,173.5 C 195.289,175.424 194.623,175.757 193.5,174.5C 193.842,173.662 194.508,173.328 195.5,173.5 Z"/></g>
<g><path style="opacity:0.288" fill="#a4ee80" d="M 242.5,173.5 C 244.153,173.66 245.486,174.326 246.5,175.5C 245.687,176.653 244.687,176.653 243.5,175.5C 242.702,175.043 242.369,174.376 242.5,173.5 Z"/></g>
<g><path style="opacity:0.169" fill="#9be079" d="M 431.5,173.5 C 430.833,175.5 429.5,176.833 427.5,177.5C 427.957,175.227 429.29,173.894 431.5,173.5 Z"/></g>
<g><path style="opacity:0.759" fill="#a1e77f" d="M 471.5,173.5 C 473.833,173.5 476.167,173.5 478.5,173.5C 477.848,174.725 476.681,175.392 475,175.5C 473.319,175.392 472.152,174.725 471.5,173.5 Z"/></g>
<g><path style="opacity:0.805" fill="#9fe87b" d="M 381.5,173.5 C 382.75,173.577 383.583,174.244 384,175.5C 384.667,235.833 384.667,296.167 384,356.5C 383.722,357.416 383.222,358.082 382.5,358.5C 382.5,357.833 382.167,357.5 381.5,357.5C 382.83,296.196 382.83,234.863 381.5,173.5 Z"/></g>
<g><path style="opacity:0.569" fill="#9cde7a" d="M 482.5,174.5 C 483.167,174.5 483.833,174.5 484.5,174.5C 483.833,177.167 483.167,177.167 482.5,174.5 Z"/></g>
<g><path style="opacity:0.163" fill="#9adf7b" d="M 488.5,175.5 C 489.492,175.328 490.158,175.662 490.5,176.5C 489.377,177.757 488.711,177.424 488.5,175.5 Z"/></g>
<g><path style="opacity:0.6" fill="#a7f182" d="M 247.5,175.5 C 249.062,175.733 250.395,176.4 251.5,177.5C 250.905,180.113 250.071,180.113 249,177.5C 248.667,177.833 248.333,178.167 248,178.5C 247.517,177.552 247.351,176.552 247.5,175.5 Z"/></g>
<g><path style="opacity:0.62" fill="#a4ee80" d="M 119.5,175.5 C 120.872,176.512 122.205,177.512 123.5,178.5C 121.027,179.57 119.693,178.57 119.5,175.5 Z"/></g>
<g><path style="opacity:0.533" fill="#a5f081" d="M 189.5,175.5 C 189.5,176.5 189.5,177.5 189.5,178.5C 186.995,178.98 184.662,179.98 182.5,181.5C 181.893,181.376 181.56,181.043 181.5,180.5C 183.794,178.347 186.46,176.68 189.5,175.5 Z"/></g>
<g><path style="opacity:0.467" fill="#9ee57d" d="M 498.5,179.5 C 499.492,179.328 500.158,179.662 500.5,180.5C 499.377,181.757 498.711,181.424 498.5,179.5 Z"/></g>
<g><path style="opacity:0.749" fill="#a2ec7f" d="M 58.5,179.5 C 58.2131,181.121 57.2131,182.121 55.5,182.5C 54.8933,182.376 54.56,182.043 54.5,181.5C 55.5137,180.326 56.847,179.66 58.5,179.5 Z"/></g>
<g><path style="opacity:0.33" fill="#a3e981" d="M 125.5,179.5 C 128.833,182.167 131.833,185.167 134.5,188.5C 130.5,186.5 127.5,183.5 125.5,179.5 Z"/></g>
<g><path style="opacity:0.651" fill="#a7ee84" d="M 253.5,179.5 C 255.404,179.738 256.738,180.738 257.5,182.5C 255.275,183.332 253.942,182.332 253.5,179.5 Z"/></g>
<g><path style="opacity:0.62" fill="#a2e87f" d="M 179.5,181.5 C 178.969,183.544 177.802,185.211 176,186.5C 175.601,186.272 175.435,185.938 175.5,185.5C 176.5,183.833 177.833,182.5 179.5,181.5 Z"/></g>
<g><path style="opacity:0.492" fill="#9fe57c" d="M 427.5,178.5 C 428.566,180.829 428.566,183.329 427.5,186C 427.316,187.376 426.649,188.209 425.5,188.5C 425.851,185.097 426.518,181.763 427.5,178.5 Z"/></g>
<g><path style="opacity:0.878" fill="#a4ef80" d="M 501.5,180.5 C 503.754,181.124 505.421,182.457 506.5,184.5C 506.095,185.55 505.429,185.55 504.5,184.5C 503.066,183.412 502.066,182.078 501.5,180.5 Z"/></g>
<g><path style="opacity:0.447" fill="#a4ea81" d="M 508.5,185.5 C 510.027,185.427 511.027,186.094 511.5,187.5C 509.668,188.718 508.668,188.051 508.5,185.5 Z"/></g>
<g><path style="opacity:0.276" fill="#a3e980" d="M 47.5,186.5 C 44.1667,191.833 39.8333,196.167 34.5,199.5C 37.8121,194.188 42.1454,189.855 47.5,186.5 Z"/></g>
<g><path style="opacity:0.831" fill="#a1e87f" d="M 425.5,190.5 C 426.885,191.947 426.552,192.947 424.5,193.5C 424.263,192.209 424.596,191.209 425.5,190.5 Z"/></g>
<g><path style="opacity:0.285" fill="#a3eb81" d="M 258.5,183.5 C 260.463,184.96 262.296,186.627 264,188.5C 266.611,193.624 268.444,198.624 269.5,203.5C 266.894,199.6 264.727,195.267 263,190.5C 260.418,188.772 258.918,186.439 258.5,183.5 Z"/></g>
<g><path style="opacity:0.123" fill="#a3e980" d="M 323.5,173.5 C 316.807,186.885 310.141,200.219 303.5,213.5C 308.535,200.901 313.868,188.401 319.5,176C 320.356,174.405 321.689,173.572 323.5,173.5 Z"/></g>
<g><path style="opacity:0.275" fill="#a2e780" d="M 515.5,191.5 C 517.543,192.579 518.876,194.246 519.5,196.5C 517.469,195.461 516.136,193.795 515.5,191.5 Z"/></g>
<g><path style="opacity:0.302" fill="#a3e882" d="M 424.5,195.5 C 424.715,197.179 424.048,198.179 422.5,198.5C 422.932,197.29 423.599,196.29 424.5,195.5 Z"/></g>
<g><path style="opacity:0.525" fill="#a1e77f" d="M 519.5,196.5 C 521.245,198.033 522.245,200.033 522.5,202.5C 520.461,201.089 519.461,199.089 519.5,196.5 Z"/></g>
<g><path style="opacity:0.041" fill="#9bdd7b" d="M 33.5,201.5 C 33.573,203.027 32.9063,204.027 31.5,204.5C 30.5092,202.877 31.1759,201.877 33.5,201.5 Z"/></g>
<g><path style="opacity:0.122" fill="#9fe57c" d="M 422.5,199.5 C 423.503,201.487 423.503,203.654 422.5,206C 422.316,207.376 421.649,208.209 420.5,208.5C 421.01,205.461 421.677,202.461 422.5,199.5 Z"/></g>
<g><path style="opacity:0.069" fill="#9fe67d" d="M 134.5,189.5 C 140.282,194.79 143.616,201.456 144.5,209.5C 140.693,203.219 137.36,196.553 134.5,189.5 Z"/></g>
<g><path style="opacity:0.184" fill="#99d978" d="M 269.5,204.5 C 271.048,204.821 271.715,205.821 271.5,207.5C 269.952,207.179 269.285,206.179 269.5,204.5 Z"/></g>
<g><path style="opacity:0.133" fill="#a0e87e" d="M 30.5,205.5 C 30.3155,208.337 28.9822,210.337 26.5,211.5C 26.8449,208.802 28.1782,206.802 30.5,205.5 Z"/></g>
<g><path style="opacity:0.949" fill="#9fe57d" d="M 170.5,189.5 C 170.649,190.552 170.483,191.552 170,192.5C 164.866,198.211 161.533,204.878 160,212.5C 159.329,213.252 158.496,213.586 157.5,213.5C 159.77,204.288 164.103,196.288 170.5,189.5 Z"/></g>
<g><path style="opacity:0.328" fill="#a3e782" d="M 218.5,211.5 C 216.833,211.5 215.167,211.5 213.5,211.5C 213.791,210.351 214.624,209.684 216,209.5C 217.376,209.684 218.209,210.351 218.5,211.5 Z"/></g>
<g><path style="opacity:0.063" fill="#a1e97e" d="M 211.5,211.5 C 210.486,212.674 209.153,213.34 207.5,213.5C 207.787,211.879 208.787,210.879 210.5,210.5C 211.107,210.624 211.44,210.957 211.5,211.5 Z"/></g>
<g><path style="opacity:0.702" fill="#a2e87f" d="M 90.5,214.5 C 88.1667,214.5 85.8333,214.5 83.5,214.5C 84.1522,213.275 85.3189,212.608 87,212.5C 88.6811,212.608 89.8478,213.275 90.5,214.5 Z"/></g>
<g><path style="opacity:0.304" fill="#9fe57d" d="M 144.5,210.5 C 145.167,212.167 145.833,213.833 146.5,215.5C 145.5,215.5 144.5,215.5 143.5,215.5C 143.216,213.585 143.549,211.919 144.5,210.5 Z"/></g>
<g><path style="opacity:0.596" fill="#a0e77d" d="M 522.5,202.5 C 523.497,202.47 524.164,202.97 524.5,204C 525.816,208.11 526.816,212.276 527.5,216.5C 525.253,212.262 523.586,207.595 522.5,202.5 Z"/></g>
<g><path style="opacity:0.692" fill="#9de67b" d="M 473.5,215.5 C 463.652,215.173 453.986,215.506 444.5,216.5C 442.183,217.534 441.183,216.534 441.5,213.5C 452.552,212.857 463.219,213.524 473.5,215.5 Z"/></g>
<g><path style="opacity:0.125" fill="#9ee17d" d="M 271.5,210.5 C 272.341,212.379 272.675,214.379 272.5,216.5C 271.307,216.03 270.64,215.03 270.5,213.5C 270.52,212.274 270.853,211.274 271.5,210.5 Z"/></g>
<g><path style="opacity:0.145" fill="#9de17b" d="M 78.5,216.5 C 78.1667,217.5 77.5,218.167 76.5,218.5C 76.281,217.325 76.6143,216.325 77.5,215.5C 78.1067,215.624 78.44,215.957 78.5,216.5 Z"/></g>
<g><path style="opacity:0.69" fill="#9fe67c" d="M 420.5,210.5 C 421.097,210.735 421.43,211.235 421.5,212C 421.294,214.73 420.294,216.897 418.5,218.5C 419.043,215.782 419.709,213.115 420.5,210.5 Z"/></g>
<g><path style="opacity:0.324" fill="#a0e47e" d="M 157.5,215.5 C 158.147,216.274 158.48,217.274 158.5,218.5C 158.36,220.03 157.693,221.03 156.5,221.5C 156.325,219.379 156.659,217.379 157.5,215.5 Z"/></g>
<g><path style="opacity:0.369" fill="#a1e67f" d="M 207.5,213.5 C 206.083,217.002 205.416,220.669 205.5,224.5C 204.351,224.209 203.684,223.376 203.5,222C 203.921,219.815 204.421,217.649 205,215.5C 205.417,214.244 206.25,213.577 207.5,213.5 Z"/></g>
<g><path style="opacity:0.536" fill="#a1e77e" d="M 303.5,213.5 C 297.314,229.539 290.314,245.205 282.5,260.5C 282.043,261.298 281.376,261.631 280.5,261.5C 288.185,245.412 295.851,229.412 303.5,213.5 Z"/></g>
<g><path style="opacity:0.101" fill="#9de17c" d="M 145.5,217.5 C 147.163,219.438 147.829,221.772 147.5,224.5C 146.5,224.5 145.5,224.5 144.5,224.5C 144.198,221.941 144.532,219.607 145.5,217.5 Z"/></g>
<g><path style="opacity:0.604" fill="#a6f182" d="M 452.5,219.5 C 453.872,220.512 455.205,221.512 456.5,222.5C 454.027,223.57 452.693,222.57 452.5,219.5 Z"/></g>
<g><path style="opacity:0.465" fill="#a0e57e" d="M 481.5,228.5 C 481.178,224.204 479.511,220.537 476.5,217.5C 476.56,216.957 476.893,216.624 477.5,216.5C 481.331,219.869 482.664,223.869 481.5,228.5 Z"/></g>
<g><path style="opacity:0.983" fill="#a4ec80" d="M 527.5,218.5 C 528.388,221.054 528.721,223.721 528.5,226.5C 526.974,225.508 526.307,224.008 526.5,222C 526.514,220.615 526.848,219.449 527.5,218.5 Z"/></g>
<g><path style="opacity:0.251" fill="#9de27c" d="M 418.5,220.5 C 418.715,222.179 418.048,223.179 416.5,223.5C 416.932,222.29 417.599,221.29 418.5,220.5 Z"/></g>
<g><path style="opacity:0.643" fill="#9fe57c" d="M 229.5,230.5 C 227.827,229.657 226.66,228.324 226,226.5C 225.386,221.89 224.22,217.557 222.5,213.5C 222.369,212.761 222.536,212.094 223,211.5C 224,212.833 225,214.167 226,215.5C 226.924,220.59 228.091,225.59 229.5,230.5 Z"/></g>
<g><path style="opacity:0.292" fill="#a0e67e" d="M 71.5,223.5 C 69.3743,226.799 67.0409,229.799 64.5,232.5C 65.4373,229.731 66.6039,227.064 68,224.5C 69.0113,223.663 70.1779,223.33 71.5,223.5 Z"/></g>
<g><path style="opacity:0.761" fill="#a4f07f" d="M 457.5,222.5 C 458.391,223.11 459.391,223.443 460.5,223.5C 460.5,224.167 460.5,224.833 460.5,225.5C 459.5,225.5 458.5,225.5 457.5,225.5C 457.5,224.5 457.5,223.5 457.5,222.5 Z"/></g>
<g><path style="opacity:0.244" fill="#9ee07d" d="M 460.5,223.5 C 461.993,224.312 462.66,225.645 462.5,227.5C 462.48,228.726 462.147,229.726 461.5,230.5C 461.784,228.585 461.451,226.919 460.5,225.5C 460.5,224.833 460.5,224.167 460.5,223.5 Z"/></g>
<g><path style="opacity:0.95" fill="#a3ed80" d="M 460.5,225.5 C 461.451,226.919 461.784,228.585 461.5,230.5C 461.675,232.621 461.341,234.621 460.5,236.5C 460.194,233.055 460.194,229.389 460.5,225.5 Z"/></g>
<g><path style="opacity:0.024" fill="#99de79" d="M 272.5,226.5 C 272.5,227.833 271.833,228.5 270.5,228.5C 270.5,227.167 271.167,226.5 272.5,226.5 Z"/></g>
<g><path style="opacity:0.329" fill="#a1e87e" d="M 341.5,227.5 C 340.017,230.628 338.351,233.628 336.5,236.5C 337.538,232.087 338.871,227.754 340.5,223.5C 341.167,222.167 341.833,222.167 342.5,223.5C 341.754,224.736 341.421,226.07 341.5,227.5 Z"/></g>
<g><path style="opacity:0.094" fill="#99da78" d="M 97.5,227.5 C 98.7479,228.334 99.4146,229.667 99.5,231.5C 99.4892,233.045 99.1558,234.378 98.5,235.5C 97.612,232.946 97.2786,230.279 97.5,227.5 Z"/></g>
<g><path style="opacity:0.112" fill="#9de47b" d="M 205.5,227.5 C 207.204,230.256 208.537,233.256 209.5,236.5C 207.143,234.433 205.476,231.766 204.5,228.5C 204.624,227.893 204.957,227.56 205.5,227.5 Z"/></g>
<g><path style="opacity:0.222" fill="#9bde7a" d="M 156.5,231.5 C 157.693,231.97 158.36,232.97 158.5,234.5C 158.48,235.726 158.147,236.726 157.5,237.5C 156.539,235.735 156.205,233.735 156.5,231.5 Z"/></g>
<g><path style="opacity:0.378" fill="#9fe67d" d="M 416.5,225.5 C 417.695,225.866 418.361,226.699 418.5,228C 416.413,232.422 415.08,237.088 414.5,242C 414.316,243.376 413.649,244.209 412.5,244.5C 413.579,238.107 414.912,231.774 416.5,225.5 Z"/></g>
<g><path style="opacity:0.589" fill="#9ce479" d="M 94.5,217.5 C 95.4959,217.414 96.3292,217.748 97,218.5C 99.5805,224.046 101.08,229.88 101.5,236C 115.673,236.169 129.673,236.669 143.5,237.5C 129.339,238.661 115.006,238.827 100.5,238C 99.244,237.583 98.5774,236.75 98.5,235.5C 99.1558,234.378 99.4892,233.045 99.5,231.5C 99.4146,229.667 98.7479,228.334 97.5,227.5C 96.9009,224.037 95.9009,220.704 94.5,217.5 Z"/></g>
<g><path style="opacity:0.907" fill="#a2e97f" d="M 341.5,230.5 C 342.487,235.305 342.821,240.305 342.5,245.5C 341.5,245.5 340.5,245.5 339.5,245.5C 339.434,240.362 340.1,235.362 341.5,230.5 Z"/></g>
<g><path style="opacity:0.353" fill="#9de37b" d="M 211.5,238.5 C 212.473,240.139 213.806,241.473 215.5,242.5C 215.5,243.167 215.5,243.833 215.5,244.5C 212.956,243.292 211.622,241.292 211.5,238.5 Z"/></g>
<g><path style="opacity:0.318" fill="#9fe67d" d="M 460.5,238.5 C 459.898,243.291 458.565,247.624 456.5,251.5C 455.903,251.265 455.57,250.765 455.5,250C 456.983,245.872 458.65,242.038 460.5,238.5 Z"/></g>
<g><path style="opacity:0.224" fill="#a2e880" d="M 64.5,232.5 C 63.267,237.293 61.267,241.626 58.5,245.5C 59.3612,240.557 61.3612,236.224 64.5,232.5 Z"/></g>
<g><path style="opacity:0.004" fill="#97e175" d="M 215.5,241.5 C 216.833,242.167 216.833,242.167 215.5,241.5 Z"/></g>
<g><path style="opacity:0.712" fill="#a1eb7e" d="M 528.5,236.5 C 528.736,239.609 528.403,242.609 527.5,245.5C 526.842,244.207 526.508,242.707 526.5,241C 526.569,239.014 527.235,237.514 528.5,236.5 Z"/></g>
<g><path style="opacity:0.247" fill="#a0e67d" d="M 26.5,212.5 C 18.0536,228.172 12.3869,244.838 9.5,262.5C 8.5,262.5 7.5,262.5 6.5,262.5C 10.5022,246.328 16.0022,230.661 23,215.5C 24.0391,214.29 25.2058,213.29 26.5,212.5 Z"/></g>
<g><path style="opacity:0.312" fill="#a0e87e" d="M 157.5,239.5 C 158.5,239.5 159.5,239.5 160.5,239.5C 160.67,240.822 160.337,241.989 159.5,243C 163.064,249.728 166.397,256.561 169.5,263.5C 163.415,256.602 159.415,248.602 157.5,239.5 Z"/></g>
<g><path style="opacity:0.071" fill="#9de27c" d="M 335.5,239.5 C 334.662,242.686 333.662,245.853 332.5,249C 332.164,250.03 331.497,250.53 330.5,250.5C 331.223,246.299 332.89,242.632 335.5,239.5 Z"/></g>
<g><path style="opacity:0.49" fill="#9ddf7d" d="M 412.5,246.5 C 412.715,248.179 412.048,249.179 410.5,249.5C 410.427,247.973 411.094,246.973 412.5,246.5 Z"/></g>
<g><path style="opacity:0.576" fill="#9fe57d" d="M 58.5,246.5 C 57.161,250.849 55.8277,255.182 54.5,259.5C 53.9033,259.265 53.5699,258.765 53.5,258C 54.0779,256.189 54.5779,254.355 55,252.5C 55.353,249.848 56.5197,247.848 58.5,246.5 Z"/></g>
<g><path style="opacity:0.494" fill="#9be07a" d="M 527.5,248.5 C 527.737,249.791 527.404,250.791 526.5,251.5C 525.285,250.221 525.618,249.221 527.5,248.5 Z"/></g>
<g><path style="opacity:0.388" fill="#a0e87e" d="M 481.5,241.5 C 482.171,246.076 481.671,250.743 480,255.5C 479.111,258.095 477.611,260.095 475.5,261.5C 478.628,255.207 480.628,248.541 481.5,241.5 Z"/></g>
<g><path style="opacity:0.576" fill="#9feb7b" d="M 224.5,252.5 C 226.833,254.167 228.833,256.167 230.5,258.5C 227.5,257.5 225.5,255.5 224.5,252.5 Z"/></g>
<g><path style="opacity:0.31" fill="#acf886" d="M 158.5,258.5 C 157.244,258.539 156.244,258.039 155.5,257C 132.836,256.5 110.169,256.333 87.5,256.5C 87.5,256.167 87.5,255.833 87.5,255.5C 109.996,254.337 132.663,254.17 155.5,255C 157.063,255.759 158.063,256.926 158.5,258.5 Z"/></g>
<g><path style="opacity:0.676" fill="#a0ea7d" d="M 456.5,254.5 C 456.198,257.373 455.531,260.039 454.5,262.5C 453.903,262.265 453.57,261.765 453.5,261C 453.706,258.27 454.706,256.103 456.5,254.5 Z"/></g>
<g><path style="opacity:0.231" fill="#a0e97d" d="M 410.5,250.5 C 411.566,252.829 411.566,255.329 410.5,258C 410.316,259.376 409.649,260.209 408.5,260.5C 409.04,257.135 409.706,253.802 410.5,250.5 Z"/></g>
<g><path style="opacity:0.095" fill="#9bdd7a" d="M 339.5,255.5 C 340.164,257.81 340.497,260.31 340.5,263C 340.475,265.929 339.809,268.429 338.5,270.5C 338.337,265.453 338.671,260.453 339.5,255.5 Z"/></g>
<g><path style="opacity:0.296" fill="#9ee27d" d="M 87.5,255.5 C 87.5,255.833 87.5,256.167 87.5,256.5C 85.6666,258.112 83.9999,259.778 82.5,261.5C 82.6288,258.13 84.2954,256.13 87.5,255.5 Z"/></g>
<g><path style="opacity:0.047" fill="#9ee07d" d="M 54.5,260.5 C 54.573,262.027 53.9063,263.027 52.5,263.5C 52.2852,261.821 52.9519,260.821 54.5,260.5 Z"/></g>
<g><path style="opacity:0.073" fill="#9ee67c" d="M 169.5,263.5 C 171.912,263.694 172.912,265.027 172.5,267.5C 171.122,266.455 170.122,265.122 169.5,263.5 Z"/></g>
<g><path style="opacity:0.071" fill="#a1e67f" d="M 329.5,254.5 C 328.759,258.78 327.093,262.446 324.5,265.5C 325.241,261.22 326.907,257.554 329.5,254.5 Z"/></g>
<g><path style="opacity:0.196" fill="#9ee27d" d="M 408.5,261.5 C 409.124,261.917 409.457,262.584 409.5,263.5C 409.253,264.713 408.586,265.38 407.5,265.5C 407.433,264.041 407.766,262.708 408.5,261.5 Z"/></g>
<g><path style="opacity:0.824" fill="#a1ea7f" d="M 526.5,253.5 C 525.995,256.521 525.328,259.521 524.5,262.5C 524.253,263.713 523.586,264.38 522.5,264.5C 521.957,264.44 521.624,264.107 521.5,263.5C 523.16,259.973 524.826,256.639 526.5,253.5 Z"/></g>
<g><path style="opacity:0.129" fill="#9de67b" d="M 158.5,261.5 C 158.167,262.833 157.833,264.167 157.5,265.5C 156.876,265.083 156.543,264.416 156.5,263.5C 156.747,262.287 157.414,261.62 158.5,261.5 Z"/></g>
<g><path style="opacity:0.169" fill="#a1e87e" d="M 231.5,260.5 C 235.269,262.937 237.936,266.271 239.5,270.5C 236.46,267.461 233.794,264.127 231.5,260.5 Z"/></g>
<g><path style="opacity:0.243" fill="#a8f184" d="M 280.5,263.5 C 281.471,264.962 281.138,266.295 279.5,267.5C 279.672,266.508 279.338,265.842 278.5,265.5C 278.5,264.167 279.167,263.5 280.5,263.5 Z"/></g>
<g><path style="opacity:0.412" fill="#a0e87d" d="M 475.5,262.5 C 475.525,266.14 473.858,268.473 470.5,269.5C 472.424,267.305 474.091,264.972 475.5,262.5 Z"/></g>
<g><path style="opacity:0.867" fill="#a2eb7e" d="M 52.5,265.5 C 52.634,267.292 52.3007,268.958 51.5,270.5C 50.8614,269.903 50.528,269.07 50.5,268C 50.6842,266.624 51.3509,265.791 52.5,265.5 Z"/></g>
<g><path style="opacity:0.282" fill="#9fe47d" d="M 454.5,264.5 C 454.167,265.833 453.833,267.167 453.5,268.5C 452.876,268.083 452.543,267.416 452.5,266.5C 452.747,265.287 453.414,264.62 454.5,264.5 Z"/></g>
<g><path style="opacity:0.273" fill="#9cdf7a" d="M 157.5,266.5 C 157.573,268.027 156.906,269.027 155.5,269.5C 155.285,267.821 155.952,266.821 157.5,266.5 Z"/></g>
<g><path style="opacity:0.439" fill="#a2ec7f" d="M 82.5,263.5 C 83.5034,265.487 83.5034,267.654 82.5,270C 82.3158,271.376 81.6491,272.209 80.5,272.5C 80.916,269.417 81.5826,266.417 82.5,263.5 Z"/></g>
<g><path style="opacity:0.367" fill="#a4ec81" d="M 6.5,264.5 C 7.14713,265.274 7.48046,266.274 7.5,267.5C 7.36015,269.03 6.69348,270.03 5.5,270.5C 5.51715,268.435 5.85048,266.435 6.5,264.5 Z"/></g>
<g><path style="opacity:0.107" fill="#9edf7e" d="M 324.5,266.5 C 324.634,268.292 324.301,269.958 323.5,271.5C 322.957,271.44 322.624,271.107 322.5,270.5C 322.994,268.974 323.661,267.641 324.5,266.5 Z"/></g>
<g><path style="opacity:0.255" fill="#9ce07a" d="M 453.5,269.5 C 453.567,270.959 453.234,272.292 452.5,273.5C 451.876,273.083 451.543,272.416 451.5,271.5C 451.747,270.287 452.414,269.62 453.5,269.5 Z"/></g>
<g><path style="opacity:0.269" fill="#a7ef84" d="M 174.5,269.5 C 180.034,273.557 185.201,278.224 190,283.5C 190.791,284.745 191.291,286.078 191.5,287.5C 185.108,282.11 179.441,276.11 174.5,269.5 Z"/></g>
<g><path style="opacity:0.349" fill="#9fe57c" d="M 240.5,271.5 C 244.899,276.267 247.566,281.934 248.5,288.5C 245.14,283.379 242.473,277.713 240.5,271.5 Z"/></g>
<g><path style="opacity:0.235" fill="#9fe57c" d="M 522.5,266.5 C 521.579,270.299 519.912,273.632 517.5,276.5C 518.199,273.427 519.199,270.427 520.5,267.5C 520.957,266.702 521.624,266.369 522.5,266.5 Z"/></g>
<g><path style="opacity:0.208" fill="#9ee27b" d="M 278.5,265.5 C 279.338,265.842 279.672,266.508 279.5,267.5C 276.748,275.01 273.415,282.343 269.5,289.5C 269.043,290.298 268.376,290.631 267.5,290.5C 270.582,281.925 274.249,273.591 278.5,265.5 Z"/></g>
<g><path style="opacity:0.992" fill="#a2ec7f" d="M 407.5,266.5 C 408.112,269.304 408.112,272.304 407.5,275.5C 406.5,275.5 405.5,275.5 404.5,275.5C 405.655,272.543 406.655,269.543 407.5,266.5 Z"/></g>
<g><path style="opacity:0.62" fill="#9de17c" d="M 5.5,272.5 C 6.14713,273.274 6.48046,274.274 6.5,275.5C 6.36015,277.03 5.69348,278.03 4.5,278.5C 4.32526,276.379 4.65859,274.379 5.5,272.5 Z"/></g>
<g><path style="opacity:0.141" fill="#9adb78" d="M 452.5,275.5 C 452.5,276.833 451.833,277.5 450.5,277.5C 450.5,276.167 451.167,275.5 452.5,275.5 Z"/></g>
<g><path style="opacity:0.627" fill="#a2eb7e" d="M 466.5,273.5 C 465.426,276.068 463.426,277.735 460.5,278.5C 459.893,278.376 459.56,278.043 459.5,277.5C 461.907,276.206 464.074,274.539 466,272.5C 466.399,272.728 466.565,273.062 466.5,273.5 Z"/></g>
<g><path style="opacity:0.525" fill="#9de07c" d="M 456.5,277.5 C 457.167,277.5 457.833,277.5 458.5,277.5C 457.833,280.167 457.167,280.167 456.5,277.5 Z"/></g>
<g><path style="opacity:0.849" fill="#a3eb7f" d="M 80.5,273.5 C 80.7716,275.895 80.7716,278.229 80.5,280.5C 79.557,283.255 78.2237,285.588 76.5,287.5C 77.2173,282.627 78.5506,277.96 80.5,273.5 Z"/></g>
<g><path style="opacity:0.388" fill="#a2e87f" d="M 404.5,277.5 C 406.048,277.821 406.715,278.821 406.5,280.5C 405.5,280.5 404.5,280.5 403.5,280.5C 403.557,279.391 403.89,278.391 404.5,277.5 Z"/></g>
<g><path style="opacity:0.627" fill="#a4eb81" d="M 516.5,278.5 C 516.25,280.674 515.25,282.341 513.5,283.5C 513.592,281.152 514.592,279.486 516.5,278.5 Z"/></g>
<g><path style="opacity:0.382" fill="#9de27b" d="M 403.5,281.5 C 404.124,281.917 404.457,282.584 404.5,283.5C 404.253,284.713 403.586,285.38 402.5,285.5C 402.833,284.167 403.167,282.833 403.5,281.5 Z"/></g>
<g><path style="opacity:0.604" fill="#a0e77d" d="M 154.5,276.5 C 154.167,279.167 153.833,281.833 153.5,284.5C 152.657,286.487 151.99,288.654 151.5,291C 151.164,292.03 150.497,292.53 149.5,292.5C 150.688,288.061 151.688,283.561 152.5,279C 152.684,277.624 153.351,276.791 154.5,276.5 Z"/></g>
<g><path style="opacity:0.813" fill="#a5ea82" d="M 50.5,283.5 C 50.5,287.833 50.5,292.167 50.5,296.5C 49.1999,294.777 48.5332,292.61 48.5,290C 48.5332,287.39 49.1999,285.223 50.5,283.5 Z"/></g>
<g><path style="opacity:0.004" fill="#93d874" d="M 153.5,284.5 C 154.833,285.167 154.833,285.167 153.5,284.5 Z"/></g>
<g><path style="opacity:0.008" fill="#9fe37f" d="M 513.5,284.5 C 513.19,286.144 512.19,287.144 510.5,287.5C 510.5,285.5 511.5,284.5 513.5,284.5 Z"/></g>
<g><path style="opacity:0.108" fill="#a0e67e" d="M 323.5,272.5 C 320.102,279.698 317.102,287.031 314.5,294.5C 313.624,294.631 312.957,294.298 312.5,293.5C 314.634,286.573 317.301,279.906 320.5,273.5C 321.325,272.614 322.325,272.281 323.5,272.5 Z"/></g>
<g><path style="opacity:0.229" fill="#9ee17d" d="M 338.5,282.5 C 339.161,284.134 339.494,285.967 339.5,288C 339.453,290.295 338.787,292.129 337.5,293.5C 337.244,289.731 337.577,286.064 338.5,282.5 Z"/></g>
<g><path style="opacity:0.983" fill="#a6f381" d="M 338.5,282.5 C 338.5,282.167 338.5,281.833 338.5,281.5C 340.43,285.373 341.097,289.706 340.5,294.5C 339.5,294.5 338.5,294.5 337.5,294.5C 337.5,294.167 337.5,293.833 337.5,293.5C 338.787,292.129 339.453,290.295 339.5,288C 339.494,285.967 339.161,284.134 338.5,282.5 Z"/></g>
<g><path style="opacity:0.157" fill="#9bdd7b" d="M 76.5,290.5 C 77.1667,290.5 77.8333,290.5 78.5,290.5C 78.5,291.167 78.5,291.833 78.5,292.5C 77.1667,292.5 76.5,291.833 76.5,290.5 Z"/></g>
<g><path style="opacity:0.888" fill="#a5ec81" d="M 78.5,290.5 C 83.5331,290.782 88.1998,291.782 92.5,293.5C 92.1667,293.5 91.8333,293.5 91.5,293.5C 87.0685,293.769 82.7352,293.436 78.5,292.5C 78.5,291.833 78.5,291.167 78.5,290.5 Z"/></g>
<g><path style="opacity:0.231" fill="#9ee27c" d="M 248.5,289.5 C 249.167,290.833 249.833,292.167 250.5,293.5C 247.691,293.042 247.024,291.709 248.5,289.5 Z"/></g>
<g><path style="opacity:0.355" fill="#a2e87f" d="M 193.5,289.5 C 196.297,289.967 197.631,291.633 197.5,294.5C 195.937,293.055 194.604,291.389 193.5,289.5 Z"/></g>
<g><path style="opacity:0.263" fill="#a8ed85" d="M 267.5,290.5 C 267.737,291.791 267.404,292.791 266.5,293.5C 266.062,293.565 265.728,293.399 265.5,293C 266.066,292.005 266.733,291.172 267.5,290.5 Z"/></g>
<g><path style="opacity:0.543" fill="#a1e97e" d="M 402.5,287.5 C 403.112,290.304 403.112,293.304 402.5,296.5C 401.5,296.5 400.5,296.5 399.5,296.5C 400.633,293.443 401.633,290.443 402.5,287.5 Z"/></g>
<g><path style="opacity:0.357" fill="#a3eb81" d="M 510.5,287.5 C 509.581,290.089 507.914,292.089 505.5,293.5C 506.419,290.911 508.086,288.911 510.5,287.5 Z"/></g>
<g><path style="opacity:0.082" fill="#9ee17d" d="M 197.5,295.5 C 198.833,295.5 199.5,296.167 199.5,297.5C 198.167,297.5 197.5,296.833 197.5,295.5 Z"/></g>
<g><path style="opacity:0.025" fill="#a0e57e" d="M 266.5,294.5 C 265.868,298.431 264.201,301.765 261.5,304.5C 262.226,301.821 263.059,299.154 264,296.5C 264.417,295.244 265.25,294.577 266.5,294.5 Z"/></g>
<g><path style="opacity:0.055" fill="#a2e980" d="M 147.5,293.5 C 144.428,293.183 141.428,293.516 138.5,294.5C 137.649,297.578 136.649,300.578 135.5,303.5C 134.624,303.631 133.957,303.298 133.5,302.5C 134.833,299.167 136.167,295.833 137.5,292.5C 139.167,292.167 140.833,291.833 142.5,291.5C 144.64,291.556 146.306,292.223 147.5,293.5 Z"/></g>
<g><path style="opacity:0.1" fill="#9ce17a" d="M 91.5,293.5 C 91.8333,293.5 92.1667,293.5 92.5,293.5C 91.9884,297.06 90.6551,300.727 88.5,304.5C 88.0431,305.298 87.3764,305.631 86.5,305.5C 88.1667,301.5 89.8333,297.5 91.5,293.5 Z"/></g>
<g><path style="opacity:0.688" fill="#9ee77a" d="M 250.5,296.5 C 250.557,297.609 250.89,298.609 251.5,299.5C 249.577,303.029 248.911,307.029 249.5,311.5C 248.836,309.19 248.503,306.69 248.5,304C 248.525,301.071 249.191,298.571 250.5,296.5 Z"/></g>
<g><path style="opacity:0.102" fill="#97dc76" d="M 251.5,299.5 C 251.706,303.898 251.373,308.232 250.5,312.5C 249.833,312.5 249.5,312.167 249.5,311.5C 248.911,307.029 249.577,303.029 251.5,299.5 Z"/></g>
<g><path style="opacity:0.09" fill="#9adf79" d="M 50.5,300.5 C 51.4345,301.568 51.7678,302.901 51.5,304.5C 50.4138,304.38 49.7472,303.713 49.5,302.5C 49.5427,301.584 49.8761,300.917 50.5,300.5 Z"/></g>
<g><path style="opacity:0.329" fill="#a1e77f" d="M 499.5,299.5 C 498.833,302.167 497.167,303.833 494.5,304.5C 495.373,302.114 496.873,300.114 499,298.5C 499.399,298.728 499.565,299.062 499.5,299.5 Z"/></g>
<g><path style="opacity:0.937" fill="#a1ea7e" d="M 199.5,297.5 C 202.957,300.197 203.957,303.53 202.5,307.5C 201.808,304.064 200.808,300.73 199.5,297.5 Z"/></g>
<g><path style="opacity:0.703" fill="#a1e57f" d="M 139.5,301.5 C 138.955,307.982 138.288,314.315 137.5,320.5C 136.385,315.25 136.219,309.917 137,304.5C 138.487,303.747 138.654,302.914 137.5,302C 138.094,301.536 138.761,301.369 139.5,301.5 Z"/></g>
<g><path style="opacity:0.196" fill="#9ee27c" d="M 261.5,304.5 C 261.737,305.791 261.404,306.791 260.5,307.5C 259.185,306.105 259.519,305.105 261.5,304.5 Z"/></g>
<g><path style="opacity:0.267" fill="#a2ea7e" d="M 493.5,305.5 C 493.027,306.906 492.027,307.573 490.5,307.5C 490.461,305.641 491.294,304.308 493,303.5C 493.464,304.094 493.631,304.761 493.5,305.5 Z"/></g>
<g><path style="opacity:0.4" fill="#a6ee82" d="M 180.5,301.5 C 181.75,301.577 182.583,302.244 183,303.5C 183.017,307.893 183.85,312.06 185.5,316C 185.272,316.399 184.938,316.565 184.5,316.5C 183.307,316.03 182.64,315.03 182.5,313.5C 181.572,311.106 181.572,308.773 182.5,306.5C 181.544,304.925 180.877,303.258 180.5,301.5 Z"/></g>
<g><path style="opacity:0.165" fill="#a1e97e" d="M 399.5,297.5 C 400.497,297.47 401.164,297.97 401.5,299C 400.863,303.78 399.196,307.947 396.5,311.5C 397.245,306.773 398.245,302.106 399.5,297.5 Z"/></g>
<g><path style="opacity:0.235" fill="#9de17b" d="M 4.5,307.5 C 5.69348,307.97 6.36015,308.97 6.5,310.5C 6.48046,311.726 6.14713,312.726 5.5,313.5C 4.65859,311.621 4.32526,309.621 4.5,307.5 Z"/></g>
<g><path style="opacity:0.408" fill="#9ee17e" d="M 85.5,307.5 C 85.573,309.027 84.9063,310.027 83.5,310.5C 83.427,308.973 84.0937,307.973 85.5,307.5 Z"/></g>
<g><path style="opacity:0.106" fill="#a4ef80" d="M 488.5,308.5 C 487.564,309.974 486.23,310.974 484.5,311.5C 484.693,308.43 486.027,307.43 488.5,308.5 Z"/></g>
<g><path style="opacity:0.416" fill="#9ee17b" d="M 83.5,310.5 C 83.3318,313.051 82.3318,313.718 80.5,312.5C 80.9731,311.094 81.9731,310.427 83.5,310.5 Z"/></g>
<g><path style="opacity:0.576" fill="#9ee67b" d="M 51.5,306.5 C 53.1948,310.527 55.8615,313.86 59.5,316.5C 59.1034,317.525 58.4368,317.692 57.5,317C 54.0439,314.246 52.0439,310.746 51.5,306.5 Z"/></g>
<g><path style="opacity:0.863" fill="#9fe37e" d="M 396.5,312.5 C 397.124,312.917 397.457,313.584 397.5,314.5C 397.253,315.713 396.586,316.38 395.5,316.5C 395.433,315.041 395.766,313.708 396.5,312.5 Z"/></g>
<g><path style="opacity:0.02" fill="#a4ef80" d="M 477.5,314.5 C 474.947,316.584 471.947,317.917 468.5,318.5C 468.5,317.5 468.5,316.5 468.5,315.5C 470.937,315.244 473.271,314.577 475.5,313.5C 476.183,313.863 476.85,314.196 477.5,314.5 Z"/></g>
<g><path style="opacity:0.922" fill="#a2e97f" d="M 74.5,316.5 C 74.2893,318.424 73.6226,318.757 72.5,317.5C 72.8417,316.662 73.5084,316.328 74.5,316.5 Z"/></g>
<g><path style="opacity:0.58" fill="#9ee47b" d="M 61.5,317.5 C 64.5,317.5 67.5,317.5 70.5,317.5C 69.4855,318.765 67.9855,319.431 66,319.5C 64.0145,319.431 62.5145,318.765 61.5,317.5 Z"/></g>
<g><path style="opacity:0.369" fill="#9fe87c" d="M 202.5,310.5 C 204.092,315.195 202.592,318.861 198,321.5C 197.601,321.272 197.435,320.938 197.5,320.5C 200.645,317.954 202.312,314.62 202.5,310.5 Z"/></g>
<g><path style="opacity:0.031" fill="#9fe57e" d="M 466.5,318.5 C 466.158,319.338 465.492,319.672 464.5,319.5C 464.711,317.576 465.377,317.243 466.5,318.5 Z"/></g>
<g><path style="opacity:0.565" fill="#9fe27e" d="M 184.5,317.5 C 185.833,318.167 186.833,319.167 187.5,320.5C 187.565,320.938 187.399,321.272 187,321.5C 185.519,320.529 184.685,319.196 184.5,317.5 Z"/></g>
<g><path style="opacity:0.386" fill="#9fe47d" d="M 456.5,320.5 C 455.432,321.434 454.099,321.768 452.5,321.5C 452.62,320.414 453.287,319.747 454.5,319.5C 455.416,319.543 456.083,319.876 456.5,320.5 Z"/></g>
<g><path style="opacity:0.004" fill="#9fe97d" d="M 462.5,319.5 C 461.791,320.404 460.791,320.737 459.5,320.5C 459.5,319.5 459.5,318.5 459.5,317.5C 461.179,317.285 462.179,317.952 462.5,319.5 Z"/></g>
<g><path style="opacity:0.859" fill="#a0e67d" d="M 5.5,315.5 C 7.28183,317.023 8.61517,319.023 9.5,321.5C 10.5958,327.25 12.5958,332.584 15.5,337.5C 13.7775,335.747 12.2775,333.747 11,331.5C 9.25779,326.106 7.42446,320.773 5.5,315.5 Z"/></g>
<g><path style="opacity:0.173" fill="#9de07c" d="M 395.5,318.5 C 396.404,319.209 396.737,320.209 396.5,321.5C 395.5,321.5 394.5,321.5 393.5,321.5C 393.427,319.973 394.094,318.973 395.5,318.5 Z"/></g>
<g><path style="opacity:0.545" fill="#9ae078" d="M 446.5,321.5 C 437.833,322.167 429.167,322.833 420.5,323.5C 419.833,323.5 419.167,323.5 418.5,323.5C 418.5,323.167 418.5,322.833 418.5,322.5C 419.833,322.167 419.833,321.833 418.5,321.5C 427.262,320.182 436.595,320.182 446.5,321.5 Z"/></g>
<g><path style="opacity:0.276" fill="#9adc79" d="M 189.5,320.5 C 191.389,321.38 193.389,321.38 195.5,320.5C 195.03,321.693 194.03,322.36 192.5,322.5C 190.97,322.36 189.97,321.693 189.5,320.5 Z"/></g>
<g><path style="opacity:0.194" fill="#a0e77d" d="M 250.5,315.5 C 248.941,319.897 247.608,324.397 246.5,329C 244.764,332.994 242.431,336.494 239.5,339.5C 240.849,335.639 242.682,331.973 245,328.5C 246.631,324.312 247.464,319.979 247.5,315.5C 248.5,315.5 249.5,315.5 250.5,315.5 Z"/></g>
<g><path style="opacity:0.322" fill="#9fe47e" d="M 137.5,323.5 C 139.357,325.282 140.357,327.615 140.5,330.5C 138.464,328.794 137.464,326.461 137.5,323.5 Z"/></g>
<g><path style="opacity:0.388" fill="#a3ea80" d="M 260.5,307.5 C 255.01,321.47 248.843,335.137 242,348.5C 240.244,351.835 239.744,355.169 240.5,358.5C 239.053,357.866 238.387,356.699 238.5,355C 238.796,353.112 239.296,351.278 240,349.5C 246.608,335.286 253.441,321.286 260.5,307.5 Z"/></g>
<g><path style="opacity:0.282" fill="#98db77" d="M 393.5,322.5 C 394.124,322.917 394.457,323.584 394.5,324.5C 394.253,325.713 393.586,326.38 392.5,326.5C 392.833,325.167 393.167,323.833 393.5,322.5 Z"/></g>
<g><path style="opacity:0.128" fill="#a3ed7f" d="M 418.5,323.5 C 419.167,323.5 419.833,323.5 420.5,323.5C 423.241,323.707 425.574,324.707 427.5,326.5C 427.44,327.043 427.107,327.376 426.5,327.5C 423.642,326.339 420.975,325.006 418.5,323.5 Z"/></g>
<g><path style="opacity:0.17" fill="#a0e87d" d="M 428.5,326.5 C 430.062,326.733 431.395,327.4 432.5,328.5C 432.631,329.376 432.298,330.043 431.5,330.5C 430.066,329.412 429.066,328.078 428.5,326.5 Z"/></g>
<g><path style="opacity:0.455" fill="#a0e77e" d="M 135.5,304.5 C 130.978,315.877 125.145,326.544 118,336.5C 115.963,338.706 113.797,340.706 111.5,342.5C 121.048,331.274 128.048,318.608 132.5,304.5C 133.5,304.5 134.5,304.5 135.5,304.5 Z"/></g>
<g><path style="opacity:0.565" fill="#9bdc7b" d="M 392.5,328.5 C 393.885,329.947 393.552,330.947 391.5,331.5C 391.557,330.391 391.89,329.391 392.5,328.5 Z"/></g>
<g><path style="opacity:0.385" fill="#aaf486" d="M 434.5,329.5 C 436.167,330.5 437.5,331.833 438.5,333.5C 435.5,333.833 434.167,332.5 434.5,329.5 Z"/></g>
<g><path style="opacity:0.219" fill="#97da76" d="M 336.5,337.5 C 323.34,336.34 310.006,336.173 296.5,337C 295.837,338.518 294.837,339.685 293.5,340.5C 294.038,338.883 294.371,337.216 294.5,335.5C 308.849,335.167 323.182,335.501 337.5,336.5C 337.376,337.107 337.043,337.44 336.5,337.5 Z"/></g>
<g><path style="opacity:0.871" fill="#a0e77e" d="M 438.5,336.5 C 437.96,339.865 437.294,343.198 436.5,346.5C 435.12,346.038 434.453,345.038 434.5,343.5C 435.223,341.218 435.557,338.884 435.5,336.5C 436.5,336.5 437.5,336.5 438.5,336.5 Z"/></g>
<g><path style="opacity:0.306" fill="#9fe57c" d="M 391.5,333.5 C 392.124,333.917 392.457,334.584 392.5,335.5C 391.444,339.444 390.777,343.444 390.5,347.5C 389.5,347.5 388.5,347.5 387.5,347.5C 388.267,342.643 389.601,337.977 391.5,333.5 Z"/></g>
<g><path style="opacity:0.69" fill="#9de37a" d="M 18.5,342.5 C 22.1667,344.167 24.8333,346.833 26.5,350.5C 23.5,348.167 20.8333,345.5 18.5,342.5 Z"/></g>
<g><path style="opacity:0.6" fill="#a5ed83" d="M 110.5,343.5 C 109.167,345.5 107.5,347.167 105.5,348.5C 106.167,345.833 107.833,344.167 110.5,343.5 Z"/></g>
<g><path style="opacity:0.456" fill="#a3e980" d="M 239.5,339.5 C 236.564,344.105 232.898,348.105 228.5,351.5C 231.391,346.936 235.057,342.936 239.5,339.5 Z"/></g>
<g><path style="opacity:0.227" fill="#a5ec82" d="M 140.5,332.5 C 144.659,339.678 149.659,346.345 155.5,352.5C 154.761,352.631 154.094,352.464 153.5,352C 147.535,346.564 143.201,340.064 140.5,332.5 Z"/></g>
<g><path style="opacity:0.243" fill="#9ee27c" d="M 387.5,349.5 C 389.048,349.821 389.715,350.821 389.5,352.5C 388.5,352.5 387.5,352.5 386.5,352.5C 386.557,351.391 386.89,350.391 387.5,349.5 Z"/></g>
<g><path style="opacity:0.12" fill="#a0e87d" d="M 99.5,352.5 C 98.3285,353.345 96.9952,354.011 95.5,354.5C 95.7869,352.879 96.7869,351.879 98.5,351.5C 99.1067,351.624 99.44,351.957 99.5,352.5 Z"/></g>
<g><path style="opacity:0.004" fill="#aeff87" d="M 227.5,352.5 C 228.833,353.167 228.833,353.167 227.5,352.5 Z"/></g>
<g><path style="opacity:0.322" fill="#a4ee80" d="M 226.5,352.5 C 223.634,354.294 220.634,355.961 217.5,357.5C 219.189,354.368 221.855,352.368 225.5,351.5C 226.107,351.624 226.44,351.957 226.5,352.5 Z"/></g>
<g><path style="opacity:0.494" fill="#a3ed7e" d="M 39.5,358.5 C 37.847,358.34 36.5137,357.674 35.5,356.5C 35.3691,355.624 35.7025,354.957 36.5,354.5C 37.9344,355.588 38.9344,356.922 39.5,358.5 Z"/></g>
<g><path style="opacity:0.094" fill="#a4ee80" d="M 166.5,358.5 C 164.421,358.029 162.421,357.363 160.5,356.5C 160.369,355.761 160.536,355.094 161,354.5C 162.441,355.26 163.941,355.926 165.5,356.5C 166.298,356.957 166.631,357.624 166.5,358.5 Z"/></g>
<g><path style="opacity:0.131" fill="#9de27b" d="M 336.5,343.5 C 337.485,347.634 337.818,351.968 337.5,356.5C 337.5,357.167 337.5,357.833 337.5,358.5C 336.883,358.389 336.383,358.056 336,357.5C 335.185,352.648 335.352,347.981 336.5,343.5 Z"/></g>
<g><path style="opacity:0.686" fill="#a0e77e" d="M 212.5,358.5 C 212.158,359.338 211.492,359.672 210.5,359.5C 210.711,357.576 211.377,357.243 212.5,358.5 Z"/></g>
<g><path style="opacity:0.024" fill="#9fe87c" d="M 216.5,357.5 C 216.158,358.338 215.492,358.672 214.5,358.5C 214.711,356.576 215.377,356.243 216.5,357.5 Z"/></g>
<g><path style="opacity:0.871" fill="#a3ea80" d="M 293.5,341.5 C 291.885,347.859 289.218,353.693 285.5,359C 270.661,359.828 255.994,359.661 241.5,358.5C 256.006,357.833 270.672,357.167 285.5,356.5C 287.977,352.243 289.977,347.743 291.5,343C 291.836,341.97 292.503,341.47 293.5,341.5 Z"/></g>
<g><path style="opacity:0.871" fill="#a3ea81" d="M 337.5,356.5 C 352.088,357.483 366.755,357.816 381.5,357.5C 382.167,357.5 382.5,357.833 382.5,358.5C 367.5,359.833 352.5,359.833 337.5,358.5C 337.5,357.833 337.5,357.167 337.5,356.5 Z"/></g>
<g><path style="opacity:0.037" fill="#9ada79" d="M 386.5,356.5 C 387.833,356.5 388.5,357.167 388.5,358.5C 387.167,358.5 386.5,357.833 386.5,356.5 Z"/></g>
<g><path style="opacity:0.872" fill="#a3ea81" d="M 431.5,356.5 C 431.5,357.167 431.5,357.833 431.5,358.5C 418.01,359.496 404.344,359.829 390.5,359.5C 403.87,357.812 417.537,356.812 431.5,356.5 Z"/></g>
<g><path style="opacity:0.008" fill="#9de17c" d="M 436.5,347.5 C 435.065,350.487 434.065,353.654 433.5,357C 433.164,358.03 432.497,358.53 431.5,358.5C 431.5,357.833 431.5,357.167 431.5,356.5C 432.913,353.781 433.58,350.781 433.5,347.5C 434.5,347.5 435.5,347.5 436.5,347.5 Z"/></g>
<g><path style="opacity:0.388" fill="#a2e680" d="M 43.5,359.5 C 42.8333,359.5 42.1667,359.5 41.5,359.5C 42.1667,356.833 42.8333,356.833 43.5,359.5 Z"/></g>
<g><path style="opacity:0.875" fill="#a3ea7f" d="M 49.5,360.5 C 48.1667,360.5 46.8333,360.5 45.5,360.5C 46.6649,357.978 47.9982,357.978 49.5,360.5 Z"/></g>
<g><path style="opacity:0.775" fill="#a0e87d" d="M 78.5,360.5 C 77.1667,360.5 75.8333,360.5 74.5,360.5C 74.62,359.414 75.2867,358.747 76.5,358.5C 77.7133,358.747 78.38,359.414 78.5,360.5 Z"/></g>
<g><path style="opacity:0.169" fill="#9fe67e" d="M 84.5,358.5 C 83.791,359.404 82.791,359.737 81.5,359.5C 81.8041,357.204 82.8041,356.871 84.5,358.5 Z"/></g>
<g><path style="opacity:0.384" fill="#a1e680" d="M 170.5,359.5 C 169.833,359.5 169.167,359.5 168.5,359.5C 169.167,356.833 169.833,356.833 170.5,359.5 Z"/></g>
<g><path style="opacity:0.794" fill="#a1ea7e" d="M 175.5,360.5 C 174.5,360.5 173.5,360.5 172.5,360.5C 173.5,357.833 174.5,357.833 175.5,360.5 Z"/></g>
<g><path style="opacity:0.89" fill="#a1e87e" d="M 208.5,360.5 C 207.5,360.5 206.5,360.5 205.5,360.5C 206.5,357.833 207.5,357.833 208.5,360.5 Z"/></g>
</svg>
