<svg width="33" height="33" viewBox="0 0 33 33" fill="none" xmlns="http://www.w3.org/2000/svg">
<path d="M10.948 19.9649C10.948 20.3265 11.2456 20.6241 11.6072 20.6241H21.4664C21.828 20.6241 22.1256 20.3265 22.1256 19.9649C22.1256 19.6033 21.828 19.3057 21.4664 19.3057H11.6072C11.2424 19.3057 10.948 19.6033 10.948 19.9649ZM21.4664 22.6433H11.6072C11.2456 22.6433 10.948 22.9409 10.948 23.3025C10.948 23.6641 11.2456 23.9617 11.6072 23.9617H21.4664C21.828 23.9617 22.1256 23.6641 22.1256 23.3025C22.1256 22.9409 21.828 22.6433 21.4664 22.6433Z" fill="white"/>
<path d="M18.8424 5.88812H9.01518C8.28878 5.88812 7.69678 6.48012 7.69678 7.20652V26.2017C7.69678 26.9281 8.28878 27.5201 9.01518 27.5201H23.988C24.7144 27.5201 25.3064 26.9281 25.3064 26.2017V12.3521L18.8424 5.88812ZM19.7 8.61132L22.7368 11.6481H19.9272C19.8056 11.6481 19.7 11.5425 19.7 11.4209V8.61132ZM23.9848 26.1985L9.01518 26.2017C9.01518 26.2017 9.01198 26.2017 9.01198 26.1985V7.20972C9.01198 7.20972 9.01198 7.20652 9.01518 7.20652H18.3272L18.3784 7.25772V11.4177C18.3784 12.2689 19.076 12.9633 19.924 12.9633H23.9848V26.1985Z" fill="white"/>
<path d="M13.9016 12.8513C15.0632 12.8513 16.004 11.9105 16.004 10.7489C16.004 9.58728 15.0632 8.64648 13.9016 8.64648C12.74 8.64648 11.796 9.58408 11.796 10.7489C11.796 11.9105 12.7368 12.8513 13.9016 12.8513ZM13.9016 9.79848C14.4264 9.79848 14.852 10.2241 14.852 10.7489C14.852 11.2737 14.4264 11.6993 13.9016 11.6993C13.3768 11.6993 12.9512 11.2737 12.9512 10.7489C12.9512 10.2241 13.3768 9.79848 13.9016 9.79848ZM11.6072 16.4769C11.972 16.4769 12.2664 16.1825 12.2664 15.8177C12.2664 15.1041 13.0152 14.4993 13.9016 14.4993C14.788 14.4993 15.5368 15.1009 15.5368 15.8177C15.5368 16.1825 15.8312 16.4769 16.196 16.4769C16.5608 16.4769 16.8552 16.1825 16.8552 15.8177C16.8552 14.3649 15.5304 13.1809 13.9016 13.1809C12.2728 13.1809 10.948 14.3649 10.948 15.8177C10.948 16.1825 11.2424 16.4769 11.6072 16.4769Z" fill="white"/>
</svg>
