<svg width="28" height="29" viewBox="0 0 28 29" fill="none" xmlns="http://www.w3.org/2000/svg">
<g clip-path="url(#clip0_302_152)">
<path d="M24.6667 27.5374H3.33335C2.62611 27.5374 1.94783 27.2564 1.44774 26.7564C0.947639 26.2563 0.666687 25.5779 0.666687 24.8708V10.2694C0.688851 9.82869 0.81839 9.40005 1.04404 9.02077C1.26968 8.64149 1.58458 8.32317 1.96135 8.09338L12.628 1.69341C13.0423 1.445 13.5163 1.31378 13.9993 1.31378C14.4824 1.31378 14.9564 1.445 15.3707 1.69341L26.0374 8.09338C26.8386 8.57742 27.3307 9.44408 27.3334 10.3801V24.8708C27.3334 25.5779 27.0524 26.2563 26.5523 26.7564C26.0522 27.2564 25.374 27.5374 24.6667 27.5374ZM3.33335 11.3614V24.8708H24.6667V11.3614L14 18.472L3.33335 11.3614ZM14 3.98007L5.08802 9.32675L14 15.2681L22.9107 9.32675L14 3.98007Z" fill="white"/>
</g>
<defs>
<clipPath id="clip0_302_152">
<rect width="27" height="28" fill="white" transform="translate(0.5 0.5)"/>
</clipPath>
</defs>
</svg>
