<svg width="34" height="33" viewBox="0 0 34 33" fill="none" xmlns="http://www.w3.org/2000/svg">
<g clip-path="url(#clip0_302_154)">
<path d="M17 0.600121C8.161 0.600121 1 7.76712 1 16.6001C1 23.6732 5.584 29.6681 11.937 31.7831C12.74 31.9341 13.03 31.4391 13.03 31.0111C13.03 30.6311 13.021 29.6261 13.015 28.2921C8.562 29.2561 7.624 26.1411 7.624 26.1411C6.895 24.2972 5.843 23.8021 5.843 23.8021C4.395 22.8131 5.958 22.8341 5.958 22.8341C7.562 22.9431 8.406 24.4791 8.406 24.4791C9.83299 26.9271 12.15 26.2191 13.067 25.8071C13.207 24.7761 13.624 24.0671 14.078 23.6721C10.526 23.2711 6.791 21.8961 6.791 15.7651C6.791 14.0141 7.411 12.5881 8.436 11.4681C8.259 11.0671 7.717 9.43712 8.577 7.23312C8.577 7.23312 9.91604 6.80612 12.977 8.87414C14.2809 8.51948 15.6258 8.33761 16.977 8.33312C18.337 8.34211 19.696 8.52009 20.977 8.87414C24.02 6.80612 25.358 7.23312 25.358 7.23312C26.217 9.43712 25.675 11.0661 25.519 11.4681C26.534 12.5881 27.154 14.0151 27.154 15.7651C27.154 21.9101 23.414 23.2652 19.858 23.6561C20.414 24.1351 20.935 25.1201 20.935 26.6151C20.935 28.7551 20.915 30.4791 20.915 31.0001C20.915 31.4161 21.195 31.9161 22.019 31.7551C28.419 29.6621 32.998 23.6621 32.998 16.5991C32.998 7.76612 25.837 0.599121 16.998 0.599121L17 0.600121Z" fill="white"/>
</g>
<defs>
<clipPath id="clip0_302_154">
<rect width="33" height="32" fill="white" transform="translate(0.5 0.5)"/>
</clipPath>
</defs>
</svg>
