<svg width="31" height="32" viewBox="0 0 31 32" fill="none" xmlns="http://www.w3.org/2000/svg">
<g clip-path="url(#clip0_302_150)">
<path d="M28.3599 25.8688C28.3599 25.8688 26.6179 27.5797 26.191 28.0813C25.4956 28.8234 24.6762 29.1738 23.6021 29.1738C23.4988 29.1738 23.3887 29.1738 23.2854 29.167C21.2405 29.0364 19.3401 28.2393 17.9148 27.5591C14.0177 25.6764 10.5957 23.0034 7.75207 19.6159C5.40417 16.7918 3.83432 14.1807 2.79463 11.3772C2.15429 9.6663 1.92019 8.33327 2.02347 7.07583C2.09232 6.27189 2.40216 5.60538 2.97365 5.03507L5.32155 2.69196C5.65893 2.37588 6.01697 2.2041 6.36812 2.2041C6.8019 2.2041 7.15305 2.46521 7.37338 2.68509C7.38027 2.69196 7.38715 2.69883 7.39404 2.7057C7.81404 3.09737 8.21339 3.50277 8.6334 3.93566C8.84684 4.15554 9.06717 4.37542 9.2875 4.60218L11.1672 6.47803C11.897 7.20639 11.897 7.87977 11.1672 8.60813C10.9675 8.80739 10.7747 9.00666 10.5751 9.19905C9.99669 9.78998 10.451 9.33657 9.85201 9.87253C9.83824 9.88627 9.82447 9.89314 9.81758 9.90689C9.22544 10.4978 9.33561 11.075 9.45955 11.4667C9.46643 11.4873 9.47332 11.5079 9.4802 11.5285C9.96906 12.7104 10.6576 13.8235 11.7042 15.1497L11.7111 15.1565C13.6114 17.4928 15.615 19.3137 17.8252 20.7085C18.1075 20.8872 18.3967 21.0315 18.6721 21.1689C18.92 21.2926 19.1541 21.4094 19.3538 21.5331C19.3813 21.5468 19.4089 21.5674 19.4364 21.5812C19.6705 21.698 19.8908 21.753 20.1181 21.753C20.6895 21.753 21.0476 21.3956 21.1646 21.2788L22.5142 19.932C22.7483 19.6984 23.1202 19.4166 23.5539 19.4166C23.9808 19.4166 24.332 19.6846 24.5454 19.9182C24.5523 19.9251 24.5523 19.9251 24.5592 19.932L28.353 23.7181C29.0622 24.4189 28.3599 25.8688 28.3599 25.8688Z" stroke="white" stroke-width="3" stroke-linecap="round" stroke-linejoin="round"/>
</g>
<defs>
<clipPath id="clip0_302_150">
<rect width="30" height="31" fill="white" transform="translate(0.5 0.5)"/>
</clipPath>
</defs>
</svg>
