<svg width="30" height="31" viewBox="0 0 30 31" fill="none" xmlns="http://www.w3.org/2000/svg">
<path d="M27.8599 25.3688C27.8599 25.3688 26.1179 27.0797 25.691 27.5813C24.9956 28.3234 24.1762 28.6738 23.1021 28.6738C22.9988 28.6738 22.8887 28.6738 22.7854 28.667C20.7405 28.5364 18.8401 27.7393 17.4148 27.0591C13.5177 25.1764 10.0957 22.5034 7.25207 19.1159C4.90417 16.2918 3.33432 13.6807 2.29463 10.8772C1.65429 9.1663 1.42019 7.83327 1.52347 6.57583C1.59232 5.77189 1.90216 5.10538 2.47365 4.53507L4.82155 2.19196C5.15893 1.87588 5.51697 1.7041 5.86812 1.7041C6.3019 1.7041 6.65305 1.96521 6.87338 2.18509C6.88027 2.19196 6.88715 2.19883 6.89404 2.2057C7.31404 2.59737 7.71339 3.00277 8.1334 3.43566C8.34684 3.65554 8.56717 3.87542 8.7875 4.10218L10.6672 5.97803C11.397 6.70639 11.397 7.37977 10.6672 8.10813C10.4675 8.30739 10.2747 8.50666 10.0751 8.69905C9.49669 9.28998 9.95104 8.83657 9.35201 9.37253C9.33824 9.38627 9.32447 9.39314 9.31758 9.40689C8.72544 9.99781 8.83561 10.575 8.95955 10.9667C8.96643 10.9873 8.97332 11.0079 8.9802 11.0285C9.46906 12.2104 10.1576 13.3235 11.2042 14.6497L11.2111 14.6565C13.1114 16.9928 15.115 18.8137 17.3252 20.2085C17.6075 20.3872 17.8967 20.5315 18.1721 20.6689C18.42 20.7926 18.6541 20.9094 18.8538 21.0331C18.8813 21.0468 18.9089 21.0674 18.9364 21.0812C19.1705 21.198 19.3908 21.253 19.6181 21.253C20.1895 21.253 20.5476 20.8956 20.6646 20.7788L22.0142 19.432C22.2483 19.1984 22.6202 18.9166 23.0539 18.9166C23.4808 18.9166 23.832 19.1846 24.0454 19.4182C24.0523 19.4251 24.0523 19.4251 24.0592 19.432L27.853 23.2181C28.5622 23.9189 27.8599 25.3688 27.8599 25.3688Z" stroke="#F0E3CA" stroke-width="3" stroke-linecap="round" stroke-linejoin="round"/>
</svg>
